<mxfile host="app.diagrams.net" modified="2020-12-02T21:52:57.410Z" agent="5.0 (Windows NT 10.0; Win64; x64) AppleWebKit/537.36 (KHTML, like Gecko) Chrome/87.0.4280.66 Safari/537.36" etag="2T8cvtubSamPZTXxoQb9" version="13.10.5" type="github">
  <diagram id="EljEJsbwZa0WqECZyF_O" name="Page-1">
    <mxGraphModel dx="1323" dy="277" grid="1" gridSize="10" guides="1" tooltips="1" connect="1" arrows="1" fold="1" page="1" pageScale="1" pageWidth="827" pageHeight="1169" math="0" shadow="0">
      <root>
        <mxCell id="0" />
        <mxCell id="1" parent="0" />
        <mxCell id="nq7OmTxhRkzKAlg708lr-1" value="" style="shape=image;verticalLabelPosition=bottom;verticalAlign=top;aspect=fixed;imageAspect=0;image=data:image/png,iVBORw0KGgoAAAANSUhEUgAAAggAAAB2CAYAAACtS2v7AAAgAElEQVR4XuzdB5QlRdUH8Lu7bCTukhEERHKQHESCknOSnLMESRJEckbJUclJUPnIQZCMoIAoGSQoQQTJOWye7/waa+3t7ZnX+2Z29w3bfc6cmXmvu7rqVtX9/++tW3V7fPnll209evSI/DVixIjo1avXaJ8NHz48JplkklGfjRw5Mnr27DnaPcV/yu758ssvo3///h2WU6XsYcOGRe/evcf6/VXKbmtri6JMii8qk1GxTmX3FMsue1ezMiqWVeyzMmGVyaOs3sX7qsix7J4hQ4ZE3759R1WliozK6l0sp0yOVcqu0o6qZTczR8rKfvPNN2OmmWaq58h/JTAu50jZGKmix+o5MrqUxvccaVZHFvu2FXFk6NCh0adPn7HSkc3OkUY6sseIESPaikBfJrTiZ2XgU6xk2cs///zzmHTSSUc1vqycKpO2WYAolq3OrjwhKIJGmfDL6l2sU5kci2WVAVRRRmXyaNSx2lRl8Fchg8oq3lelj8ruKU7ssjpWkX8VBVHWR8Wyq8ixrI/G5Rz54IMPYtCgQWM9R4pjq6vmiIo0Grdf5zlS1v9V9NbXZY6Utb/ReGhP/zSDI1V0ZJX+KBvH9RwZ0xmQ79uaINQEoaG3qCYIY3rLxiVBeOWVV2L22WevCcJ/JVAFIMYlia4JwpjjvyYIHQOroVvF0Gl1Q7MmCDVBqAlCYTltfCq/MmB7++23Y/rpp68JQk0QMglMaC9b7UEYkww043nsjl62HkOGDBljiaGM1RQ/qyKgsnu++OKLGDBgQKeVX3Gdpuoa2LhcYijWqcoyTNnkK8qoqnVULKv4/irLKTqmiruuTI5VYlkGDx4c/fr167D/qzDvYjnNxlJUGcdVLchm5khZ2R9++GEMHDiwwzXIKvWu58iYir2eI6PHjTUbS1GFRJfpkWbitLpSRxbrXc+RjudI7UGoPQi1B6HFPAgvvPBCzD333J0m0fX6amM3cJU4naoE8esap1N7ECZiD0IdpFgHKTbasVLHIIzfGIQ6SHH0XUR1DMKYO7aqeNm6KpC3Jgg1QRht98e4DMCqdzG0lvKrdzE0tjLH9y6Gd999N6addtrag1DHINQxCCXBfoTSLI7UO31GP76g0VJlvcRQLzHUSwwttsTwz3/+M+aYY46aINQEoSYINUEoDVKtEgPSFdvlewwfPrxbnIMwrphflcC9ZqNPq+zDb9Z9WqXsKuurXeVBqBokWp+DMLoHqUz+rbbEUM+RxgfHVVmGa3aOVJnrzR6UU6XsRlZm2Za+rjwHoSvP0+mOOFJlF8u4wpHag1B7EGoPQot5EN544434xje+UXsQag9C7UGoPQgT1oNQBynWQYp1kOLo63JV3HfjMk7n9ddfj1lmmaUmCDVBqAlCTRC6B0Eoc2GNFtlY8Z8qZ99XKaqr6lPlXVXvKdap2TrWMmos8Sqy7q7u01ZbYtAbjUhTs8tw3eE48nqbY32SYtGIambZpTvOkSwGoXjADcWaTxbRWF3Xd9QSmLASMPnSWnmqSVcdAlN1Ylc5KKkopTLwee2112LWWWcddWuVdpRJv6sOgSkru8o2uzKC1sxhYmXyLx4mVvWgrGJZzSY0q0I+qxD9sr5t5jCxsj7qqsPEqmxzHN9zpMphclXkX8+RLsrFQNiiIhOZSAOi+LsRTIzt/Y3Kq/J9VUu+mbqNTdnp3rJMkflyyoLCiu2sYkHnLb+yeubf0155xXuU2VH9OyoztaFR+9obW5KK5U/hbNT3VZR4M5bAuA7Aeuutt2KGGWaolxjqJYZ6iaFeYugeSwzvv/9+XHTRRaOtjZa5Hhsp7aqA2qiccfn9uKgjgvXyyy9n29capZJu1LaqoJ0vpyqhyIN4IyJTdu/YyK7qvck7IA3y/vvvX1l+3ZUg1EsMrXVWSL3EUC8xTLRLDFWDFJ0P/9RTT8UKK6zQCL/q70skwFJ94IEHMvl1liBMjAIG9r/61a9ijz32qCy/7koQXnrppZhzzjlrD0LtQag9CLUHoXt4EGqC0DlYrglC5+Q3MREE3rqpp566Jgg1QagJQk0QJixB+OSTT8Y4KImFW1zr7c4Eoa1tZAwePDT69etb2frsHJyN+XRXEIThw4bGiOgZfXtP0qXVKwb3tRdn0KmXtrXF4CGDo2/ffk31QSOCoA0Cl/JXleC+KgFYVQPgqgQpFpdVysr++OOPY8oppxzVlCrtKFvuK+4QKFvSqVJ2WcxIlSWrsrKbyeZXVu8qeQaqxJc0G6RYRW5VAjnL+r+YZKvKu8pk1GyyrmKdWnGOFPu/iozG5RwpK7vZOVIMnKwyjsv6v9kg1XxZlQ9KGl8E4aO3/xWnn3FuzDLrLPHY3x6Pw08/N6brP0ncd/e9scD8c8Z7n42MeeacLXpURCvk4PYrzokbn3w/zj35iOjZo+qTFV9Q8baOCMJH7/w7zjz9jJhjwcVixOcfxssvvhD7HfmLmGJAn1Glf/HJB/GzH+8Sa+x1fKy22FwV31rhtra2uOKXp8UnPSeNQZMPiKcfuTf+NXhgXPark6NXz66SVVs89eAf4uizr4rfXnVZTNJEuY0IQllLu+sSwz/+8Y/49re/XXsQag9C7UGoPQgT1oPQajEIvz33hPh4+qVi5w1WjJeefCQmn3PRmGHAJHHxeefHSisuHa9+MDJWXHYxG7NHKVAej6KV81VgW0TPnj3ijSfuicMvuScuOP2YkA09u7dHj8ySzVvP4zI2oD2CMPjTD2K3HbaLA08+P+b55vQRbSPj5kvPiO9ttGsMnGLAV+1U14g44/C9Yq5194w1lph71L70Mus/CcYzI9u+CvhKbU3scFRb29ripRdfim/N+e14//UXYsutd46zf31dzP3N6b6STe79SeL/Y5g+KS871ctvuw8+fefV2HXvw+PyKy+LXirWTh+MqnuByE1MBKEOUqyDFPv37z9Kv1U5ardZL0sVEt2sB6GrDhOrcoxwWTuqWN7NelmqlF3Fg1RW72KdJuRZIS3nQXjqwdtj570Oim32ODC23nT9bFngTzdeEo9/NkNsv8bCcdCBR8Whxx0Zv/r5MTFw5tni/c9GxuZrLRf/evvDePDuO2K3nx0fPT94KZ58+d146oE/xOrb7hUzDn0tDrv47jjvlCPigbtui08++zwe/MvTsf++P4rDDtgvlllmyfj3sGniZ3tvH73GkYehPYLwzJ9vjz2P/FXcffv1oyz24cOGxIhhQ+Pss8+L2WYeGO8MGRC7brdpnH3EPjHnOnvErPFmnH3JjXH2WSfHRedfFAssMFc8/+bgmGuKT+PGB56LOWeaPB595tXYYM0V4p4774xFVtsy1v3ePHHqOZfGvDNNGkOmWyi2XHM5vOO/V1sMG/x5HLjr1jHHKtvHHluuE19+8l784oyLYsHZJo0hAxeI7809MI495fxY8buLxz133x0rr7Nh/OPJh2PIgG/EofvsGCcdd3wssdSi8chLH8auP1whjjj6hFhiyaXioT//KXb76bEx1zQ94kd7HRaXXn5BXHnuqTHDnAvG/914Z5xx8lFxyhEHxKBvzh2vvvNFLDbrgPhi8rljx83XHm0porMEYZVVVglHGCNGAgAvu+yyuOWWW2LGGWeMH/zgB6M5IBotAzz88MNhGWC11VYb9dxmm20WZ5xxRkw//fTZZ88++2yccsopcfHFF3dYdpmi+c9//pPVK10TUvk9+uij8e9//zvWX3/9Uf2x3XbbxaKLLppVb6+99sp+lwHUX//61/j73/8eW2+99ai2FJXfVVddFccee2z2fb9+/WK//faLLbfcMq6//vq44IILMnmeeeaZMcUUU4wmR1uuN9poo/jXv/6VfT5o0KA4//zzY7755sv+32effTL5F6PP1dNJlauvvnp2H/K6zDLLZO96+umn46c//Wl2Bswll1wSU001VXZPXtGfffbZce6552btnXTSSePwww+PddddN7vP+DrxxBPjrLPOyv4v69vRGtHOPWOTr4S36Ygjjohf//rXYyzdpXJOPfXUmH/++cMc0N50/fznP49dd911VDvT5x0tMZD37bffHjvvvPNo7+tMxlPjyTxZeOGFs0B4fZY31mqCMGa670Y6Sl92SbKmoUOHjhGDYGAXD0oaX0sMI0eMiBef+Wuc9vPj46V3h8TFV/1fjHztwTj/gffj+L03jc3X+2Gc8evfxCn77RDf3+7A+M4sk8fJJ/wiVt9gw/jHE3+OQQuuFL877ai49Ibb4qN/PRuD+00fU3z6UkYQjt59gzj+7N/EOqsvH/ffdXtstfeR8bMtVorTr7k7phzQNwZONWXlpYviRG/0f3sE4aHbrojDf3lb/OHGqyLveR/y2Ydxyz2PxKxTjoxTLr05Lr/w7PjlUftmBGHJb/SJLbbZM2659ZpYe/W14qfH/Ty+Mf30MVWvd2P/Yy6Ps884Lo7Za8dYbc8TYtYeb8RBp18TF598QNz7+Csxw4g348Rrn43rLzjqf8stbW1xwyWnxdV/fi0uOveU6N9nkvj0vX/HHx59OWYZ8FGc+bu/xAUnHRRbbLZ1nHXhJfHw1WfGSz2+FXtusmJsseX2cdX//Tau/L/bY4XF54ht9jwi7r/zpthmo3Xi+F/9Op686fx4e4oFY7s1F8kIwsWX/Cp+e8UV8b3lvhtrrbhqPPDiP+L8g7aPBTbeL7638Fzx7P03xP2v9YhD995urAiCCUOR5K+8guayp3x69+6dbZW03XTttdcOltonn3wS0003XQYcCy20UNx9990x2WSTxVJLLRXvvfde9r3Di77//e9nxd9zzz0hkJCyXWKJJeKb3/xm/PGPf4zFFlssXn311QDoYnicZ/Cd73wnIxPActlll81A5KOPPsp2s3henXkMnn/++axsynHmmWfOAPHOO+/MyAzl/sorr2R1f+KJJ2LFFVeMJ598MgOoxRdfPAOrO+64I4Av4FOGLbXeP8kkk2QAmAdxbXnkkUdiySWXzLYtP/fccxk4q8tMM82UvZc8vve978X999+flbXxxhsHwJGG+rHHHotbb701tthii+x/n6vbCy+8MOpdSBQFpewf//jHWfvJV13yZzwAW+/acMMNs/qSIVKywQYbxBVXXBE333xzJhtbrPOXeJNFFlkkAyttAOh//vOf45BDDsne9/jjj2eyLiMIsmUiEDfddFPWt9p29NFHZ3XQ99p7zTXXxKWXXjoGQTjyyCNj3nnnzeqnT4DaZ599lr2HvACb3UqJWPj/wQcfzMbAWmutlX2vbupuPHp2nnnmyb4n1wUXXDAbT8bGbbfdFgMHDsxkRpYsybfffjs7REvfa4fxedBBB2X99OKLL2ZlLrfccpmM0xq0PkB2lKVvp5lmmvjud7+bzYOf/exnGbkyHsjCGPcc2SGGgmVTn6+zzjrZO6+++uqMSJETIuwZ8wXBUm95RLzLPCAXY9M8sLZufJk7xof5pWwE/d5778362lj3Ts8bL8avss05z5pv5o+6GidIYntkbHwflNQItMtIdKsfJtZyHoR/vPD3mO3bc0eMGBqXn3l03PfOdHHkJvPEeX98L07Ye9PYbP2N4qyrfhdnHLhrrL3n0bHQ9L1ilz0OikuuvDyE7r333ruxygrLx10PPx7TTjkg3n7/wxj55lMZQThw8xXi1KsfjHNOOjzahg+Lz4cMj53WXiEuvO1PMdWk/RphfKe+b48gvP7832KzHfaJu+67NwNm17AhX8RnH78XF1x2Tay20jJx+i+vivN+eXr86uivCMJ3Z5s0Nttyt7j19hvjucceivPPPTN6zbRoHLzL6nHoSb+Lc047Oo7Ze6dYfd+T45sj/hV7HHNhXHD8vnHR/90RP1xpsdj/rFviuguOGeWxeOWZh2O3vQ+NMy/7Tcw187Tx5eefxsfvvREXXn1XbPHDlePwk66IC085JLbeaoc477JL45Frzo7n274Ve260fGy08WZx2a+viFNO+2VsufWWsf3OP4577741tt9kwzjt4t/EEzddEM+3zRI7rbNERhAuvOicOOfkk2KFtTeI3dddN279+/Nx6aG7xNLbHRbLLzJPPPL7q+LOF4fEIWNJEMo6Jz/5Zp999szSMkmByWmnnZYBCmUMCChEIMFaBVK2GgJ0CuzAAw/MLGUK1QVEtt9++zjggAOCFYYcAMtrr702U3YLLLBA8Cicd9552Tu33Xbb7Pljjjkmttpqq0yp7rnnnplVblwAQM8CbsALKBAadWEVA1GWK4VMqQJO77/rrrvixhtvzLwhyAFF+pe//CUDU+3aZZddsjayygGatiMjQE1dKHlKloUPuIDfCSeckJEMIAbw5pprrgwU/H7mmWdi5ZVXztqKXLG6bT0lK8r7//7v/zIZuhcgaRMPAjJG5mSjruqYLu0CIsATueI9eOihh7IyAc/ll18ev//97+O3v/3taF0MMIGO8gCSunz66aeZ10Ab9QHCUUYQWN0sZ/3O8Nlxxx2DJwMgIiuAiqyAZwL6ZHnzGLhnzTXXHOUdAdLGgvp6P7BLoEUmN9xwQyZzHitjBUCrI6AnY2QFqVEPY8Z9P/rRjzISCfDJWjvefffdjATMPffcWf8bp+7Xv0B71VVXzeqx7777Zn2G/PrRz4iksYIAa79xpD8RKnUmh8knnzwD77333jtWWmmlrE7kj6TyzPju0EMPzd6FtPziF7/I2nzddddlbf7Wt76VlatPkVyEQPuUhdgiNcaddv7whz/M+hRJ87c5pa6IjnfqT+3+yU9+ko1L5ATJVD6Ctvvuu8emm26ajVfXhPSypYHZVQShXmLoAGpv/PX58VHfGWO5ReeLh++8PnrNuVKsPEev2PHgM2PPHTaOE486Jn5xweVxxc8PitV2PTxWWXzOOHq/XeKtnjPEst+ZK+ZbaqW478Ij48VhU8cyC307vvO91WOyD5+Noy67N84+7iex27ZbxwIrrBkzDpo81t5ok9hxzeXi7Bvuj9lm+N+2sk4xgXYebo8gjBwxLC49/dh4/tNJY+sfrhX9eveMl19+LWafakQcccFtsePGK8VZ510ZJ512Wlx3zlExx1q7xfJzTB6bb71H3HTrdXHRb26KTddaPo465rTYf/f148gzro1zT//Kg7DKj38es7a9Hnsff3EctfOacf4fnoutVpovjvjljXH15efG9IOmiGGDP43dttwoZl9hs9hqvR/EyBHD46F7b49ZZ5gyLrr75dhmrcXj5+f8Ls497djYa/c941eXXh4P8SDE7LHHxivGJptuGb/4xXGx52FnxvEH7xY/3uencfnvro7D9to5Tr3oN/HYDefFiyNniZ3WXTx23fuIOOeM42LzLXaMo487Kn6y9VZx8rW3xb0XHhWLb3FwrLX8YnHvNRfEPf8YHkf/dLfolXOHdnaJAUGgOE1iIAzoKKREELhoKTCWC6Wjvy688MLMOgNo3LTposxYjzvttFMG3iwehAMgAjoAD2A9iyCwBI877rgMNJEAz3PVqk/yclC+ABRoue++++7LAA/YU+DqR5GyDillwK5OLCoW4N/+9rcMVCnrZFkBOkrYuw477LCs7ZQ2MARQFDyFDIxOP/30DMTUFRGh8FnmSEyeILBGKWtKn/Imx0QQEAEEgUL/zW9+kyl4cmCZIzMAGOFhGeYJwpVXXpm9S38gUpYvtB35+tOf/pTVFwHJX4kgAEv9ZinCe9P2UMSuI4Kw/PLLZ7IE/IB4t912y4oHTkCLTIEv4pS3RBEEVjgARMgALC/ASSedlLUNcdC/LF99ixwcf/zxGSEBbjwEiSAYe2SX7lNfZfBeKFdbjCf144VAECwT6C/LMtprSUPZrHRkxD1HHXVURjo9nycIiBYvhH5RjjK8hwz95vUyTrTfHEAokEF/kzFCZrwgCEiMes0222zZGNVGhAIhTBfPkmeQGh6SHXbYIcxD7SR7Y9z4NWYTQQCOxoJnkItf/vKXWT/oFwQS0VUfhAPxSVdNEMY8zKpLlhhaLUjxg3ffiffffzfeeufdmGrab8QC84jmbou/PHBfDPrmXDH44w9ippmmj6effCKmnG6W+M6C88bQLz+LRx9+OCb3//xzB9C96uzjY+BCq8UaKy4ZLz/3VLz29oexxFLLxMgvP4rHnngq5phv4Zhuit7x4AN/julnmycWmvfbuTX5rqcIHe1iGDlyeLz896fi5yefE7vts28stMB80TNGxMMPPhAzzj5XfPD2mzHHXHPFs4//NfpOOX3MNLBvPP38y7Hokt+Nl//+eFx3892x7/77xefvvhYv//vdmH/+eeOl556NKaefJQb0HBKvvvl+LLnU4vHYww/HfIssHv988YUsPqBP714x+NP34/4HHoo+/QdkHgXKsEevvrHMkovGgw88EAsstnT88/nnY/ZvTh9PPfP3mHPeBeK9N16JIdE3Zp95unjm2edjngUXjjf+8VxMN/u88e6/XopvzTF7PPXUszH7PPPHR/95LQZH35h1hoHx9xdfjgUXWTzef/3FGNZ3YPT67O2YYY754vmnHo++U04biy68QDz/5F/jgy9GxpJLLTXKo5IshM4clEQxsZgoTOB38sknZ8qckqZ8gLsLEFHq5AAYWW6ULWWcJwg+c2gTYGDRULbK4DngYgbYiSBw3wLT5DalzPMEgXLzHOClRFmNFCHgBPAUOoKwzTbbZJYg5c4zgJRwVVPiyALiwPoHqrwWQBrYaAdgQxC0HeGgZFlyvBEABzCpH6+JNXQufNZukSBwI6+33noZMQBMvk8EAZixigEOAHEvgoBgUfrWrZEcn+UJAne4z9OFxGiLtWnPtLcGDXwQDyBVXO9vRBBY7YhiCgADWkAyLWVY4kHaLJ0UCQI3ONc2EuBC/vQp+eo7pDCRP7JRhpgK9ykzEQRWORnpJ/3MuiZ7FjyC1Ldv36x/EBBxDsCfPPSRMWccqIt+YFGrgzHnc2OuSBD0gTprozHhWW3m8TF2eRC4/i0/mB/GH48OT5a28T4YEwgCEmH8pzYYD+qIHOcJAi8HjxlCzbthviFWxg2ybF4iFnmCQLbehZQgcsYmT5ElLB44ctJfxkdNEL6SQJU4jbKYmEbBli23xNBV0Pynm6+IZwdPFztvvNo4iysYm7o2OgdhyBefxN7bbRmn/vr6GPDfpYYq5Q/78pPYbpNN4owrr49ppvhf5HOVZ7vTPV3hQaBYWYTW7wGmYMAiQaCQ1lhjjQzgWUiApowgcMuzYFjeXOJAs4wgIBaUbp4gsEApxwQiQAFos7QpcNYsgKTseTEoXoQC6FO4RYIA4AGectUFOHA7lxEElijXOdKBcCE23LmUMEBhtQEbwATI1CHvQeA54NrlzgY0PB6JIGyyySYZaAAWQIioIAMAAki6kC9xAyxp1znnnJOtl6e1ZJ+xdMkmxU64d+mll87aw33tSh6EKgSBi5xctAfQcbEXCUKydoGtOpMFkBSI6h1piQH4A8U8QUjzyBxP9/vM/4LvkLJkDRt7xhT5AGiEAnlgJfMg6QdAihACQN4cgEoG77zzTkYQ1IvnAEgam+qMVPC0GB+sbuPGGMp7EPSpzyynmU/mAoLAa6B/eBDEOJA974065AlC3oPA24Q4JPLKG4BY5AkCouczpJUM9DP5aUPyvv3hD38YFfuhrjwIibwgT+Iz9D0SLA7B2NM3iSAgSpYekKlE2PL9UbbElA+ArHcxNEjW1GpBil0BWpTAW/95IwZNO0OXHyrUbP0aEYShg7+MDz/5PKabduqxOkho6BefxcdfDotpBg0cpx6QZtvdVc81IghlQYpVtnCVMWiWCiUEUNpj5yxP91FQSQk1cwhQGfMHCqx568LWdYvJmxL4pPcqg8uVArd0YImCwm9P+XH1+x5QuT+1U7ksV0sA2oVA8ajktxAjKmRmlwUigcxwE3+1rbgtsy7JnaWXlz9ZKYuMBEADPVeVPtI+1jMiYw3cVSWbXyobsQBSZFqUd77PfGcJRYyBH+0BaH6KQFPFpZ3GFnmSM6u4uJU63ZN22CTPh7gKdSEnyxkJ/NSRdwYg55e91JUL3gFbvB/kQ86CT9OlrcgkUOehystfnhPf8wAVZdSelYmkIboIU9rOnJ/vygPqSIIxh5AiN8pHbMSJuIqyNQaR4hTLQdZIXVrWSQSRh6EjMtDIOvZsV2VzzM+RVKeu2uZYdY7kd6iM7RzJ91u+3l9bD0JXAVNXldOIIHTVe76u5TQiCGXtrjKxqiiRzmzhKlo1xUCmsvcLesuDdhUw0v5i2ePCOhJBTrGrE6vYEkZ6NwC3Fg2o2gP/ZgOwAF4iFWMLENbFEZ4yGZXtMU9jiTyBIMu6qHyr9Mm42Ob4u9/9Lgtw5eHi/crXtUg+itslRf6LO+EhsbzSXh911UmKZMsbxyPg3TxploOSN6m99yPnvEyIp6uK+7xKf4yvOdLVBKE+B+Hrimq5dtUEoXOdPDERhPqgpPqgpPqgpP+d4loThAl4DkKrBSl2DkZa9+maIHSubyYmgiCCW+BYumrraNxEaJNvRx6E9izB9izfosdgXHgQxsY6rZKvooqXrT5Jccx1+mY8j1XPQWjWy1b0co33XQxcU4K46mvsJWAiijy3vWdcHuk89jXrHk+YkAK5RDxXlV8V5dfMRG8PWIpgU/b+KksMtQeh9iDUHoTag5A08wRdYhg+fPgYJylSbPl1IhW1Lmqfrcjb+hp7CWDhIpZF/9bX2EuA/ESi2znQHkFIgUIdWd5VA7AaHfXaVefMlxEUkeTpyOaq1uq4XF8dlwFYVfIMVHExV93C1VGQYnujsqzsKl6d4nNlFmRZ2WNz1HKqc1nZXeVBaEUSXbSOq/RHPUfG9IQ0MqLqIMWxx6qmntARtpjZOlfVAm7qRV/Th8jP9i0BWlXl12jwE1UrKj9BfoK56iWGryTQlQShCKT1EsPwMbYHdmWQYtHQbMbLVqX/JzRBKCMfXbWLYYJ6EKnoeioAACAASURBVOoYhPGDqHUMQufkPDHFINRLDPUSQ73EUC8xtMQSQ3clCMOGDo1hw4dnMpykV6/o3afPqJTGXGv2/xaDNjoHUZ17ujsQBCDs1Db7qFtJdsnN3pmTFFPvdYclBvvmnXpXexBqDwIJVFmGGZdLDHWQ4kQcpDh48OAxYhAMCCdT5a/xlc2xKgy/+MILcdghB8U0U0+Tgdmcc80Vu/94n3jmqSdj7x/vHtfecEtMM+20VYsb5/e1OkF4+Z//iCsuuyQWXWzxWG2NtcbI5jnOBdTgBY08CBSke/JX2fJBM+7TqtHHRTdnlSj2MuVbjEGo0o4y8XXVITBlZRdlUnV9vVinKoGcZWUXD0oqk2OV5aOy9xfbW7XsKmOrWHZZHVMWxo4IYhX3dbGcqn1UpR1V+r9Mtl01R6oclFXWb0X5d+UcKcqkSh+V9X8rzZFuG4NA+LvsuG2stfa68Z2FF43lllk8Hnr08Zhm2uniO/PPGQ8+/NhogV4TGuBamSC8/dZbsfuuO8Yxx58Y8863QOU1/vEp00YEoawu3TUGoV5iqJcY6iWGeomhXmLoBMIgCLvutF2ssurqMd/8C8S6a64SD/31yZhmmmljgblnj/v+9GhNECrK99STfh733nNXLL7EUrHEUkvF6musVS8x9OhYQY3LXQyOWnbEcr3EUC8x1EsM1YJU6yDFcXNWSLf3IIwcMSJm+sbMsfKqq8cKK34/i3iuCUJFZvDf43m33WqzWHud9WKppZeJDdZdK35/x90xwwwzVi9kPNzZ1R6E5Nqr4oYe30ctS8ojF0CRIDhAxdHNzq6vUu904Ir6J7dlMbak6vbAZtynZUq7lQ6BaQ98qywxVAGkKktM3WGbYx2D0P1jEMxfY21sE1p1a4LAg7Dm2uvEBhtuPGpOE0JNEKojtoGzyw7bxHob/jDWXGud2GaLTePwI4+Oueb56uz6Vrm6giBIEONHqlnZ6mSqk3QoJYuRiEiWPBkGrd9KpSxRjwxyRWDtSg+CTHWyFErU45Lpz3n0eRej7JGS9EjAI8uerIGp3pLWfPzxx5nXQfxC2gYqLa62yuAnh8K3v/3tLPWyMtIlO6OkPxIaaburbP8+Wfk+nf9fZX2VjNTB4WrSAbsQBMmCZJ4sA+hFF100y86Xl7dkVdorE2K6qpwSJ/GQZEL5K19vOQJkQSTXdJWd+aDuMjqmS3skIWqkbKucg1BGNAQK6zdykuJbGubidsGO5O+5M844I0uOZalCgitylaJZH8qqWCSfeRm1dyKkhElkqi5FwmiMpeRK+XHb7DbHlDlSgq0yEqX/N99887jkkkuyuUKO8oBIHJVSh48Nic73f3sJtdwjxbo2ST6V5ovPq5wV4hwc2TNvvvnmDuVfhUTrf3pCynb92tFWUEm/ZIB1j+yZkoZ11P/5srotQTAgtt1q81htjTVj6222G6UUWUrzW2J44OH4xsz/iwSf0EDXyjEIt95yc/zhtlvjqGOPjx/vtmtcdNmvxwhSndDy6yxBOO644zJSINWxw5aADkVy//33jwJa5w9IZiP9MjClDChqE0b/URwJFICfsZbPKAekKXP32UkDiNP9AFqWxaRYU9bF9H8eEGU+nHvuuUeJXEIkKZOlqKYYERdEJxEE7xG0RXlrT1qeUD9t1A7tAcqIAKWaV+LPPPNM9rm2u2TT04680kRiyM8OF+1ISiR5NdQ/KdYUQ6HPjj766IwgLLnkktmz7qdgU3uLypCc03cS/MhOWCQI6ueevOzdq3xtVr66lAV7kVmqJ4Kw1157xXXXXTdanbQ7T0CK4Oc0VGCob7VRXfwkQALw6maMeFcCyZT8KZ90Kj2j/p5RP2MnyUi5iYySle+9t0iQ8n2W+iYdlOR/9ZAuXB8jCD7z4yoSHf1H7ml8qaM2SV0O4CQS86x3us/lfBdjL40fbfFcaru5kfpfuelzRFw/+S4/3hAEGSsFy9uRluqSAi+1H3G/7LLLRhEEc9xBfsa8+rknP471FTkoK5WTxl+SVdlJp75LfZZkpqxEtD2T5O97/5NpkrHn1SM9m5/rafzkZaVO+jy9M2+MuJ+8ED8ZTnfYYYeM4LZHENRjqaWWittuuy3rQxlYEzkn70ZxWt2WIPznzTfilVdejt69+8QCCy4Y/fsPyMbXm2/8O15++Z8xcOCgLDah6qE64xoAW5kgGFzPPvN0vPfuu7HwootlaXFb7eosQaCAKRNKA0FwrbrqqllWu6SsEARWwR133JFZYOuss0523/bbb59NeBMyWSgHHnhglpL2oosuimuvvTZLtewYaO8A7pSo0xAREoAO3CnYl156KWPz0iE7mfTggw+OSy+9NAPxM888M1MuflO2yyyzTPb+P/3pT5nSA9CUIlnklSZFRQmx7q+66qpRWyQBgfS+vAonnHBCVkfKR3bCdK244orZuxGEzTbbLKsXMnDxxReHWIh0sdYeeeSRzGI5//zzswx9LFXWCK+E5yyLkJW6OhY7EYQLL7wwkw3iJS21srRd/SivBx54YNR71BFgqwPrWTn6gwfBfXPMMUcmR56dxx57LCv3lVdeicUWWyyuv/76zCukT2U7VDdtAD7aps5Acuedd87e539ZHpEEZUtdzVuA0LhHdkrkaa211srqob2OS5cqmQdB3Y0R72Ole9dJJ52U1duhXlJM82AcdNBBmTW/0047Ze1Srnwbxh29sOGGG2YEinwRUt6K008/PZuHgAC5RPoWXHDBzLulHspSjtNFt9tuu/jBD36QWYfGGUuaRyp5EIxB8rnxxhszguB788CPe/Jpo4057dU+9bLdFghtsskmGUnVD/rP/w4tO+yww7Ix7XNjljz33XffbE7st99+2XdI4q677jqq7sohL8Bn7JOT9qbxZg4YB1JeS/FsyU0WS1lEU7/8/ve/z8o33zyPuPAwIQh23JkH5OUzddHOAw44IM4999ys3MUXXzyba94ra6Ryjes//vGP2fcu8vrtb3+bzXnjiRyM9WOPPTaTs0yV+kBdyNWccVKuMWNc8E5qn6yn5EnOdI/706WPjZe77747K5eeMbbXXHPNDPilN0gEYZ999snGwqBBgzJZqa867bHHHtkY1Oc8YuYHj5HnyME8QOpPOeWUbK64L12NvCzdliC0GoA1qk8rE4RGdW+F7ztLELTBBKZsEkGgyAAKZeFCEAAQxQOUnXzJ8gHwRx11VLCsTC5KCSCayKxLE9GkpAw22mijTFmw6H/yk59kZMA7lXHFFVdkytKkpjSALeVDwZvslhgAOZege9Ol7SY24PRu5IMFm/cgJIKgPRSIC4iw5Cg15QFQdQIY6WINIyQIAgtDmZQLxUhO2ucCCsBAfSkc9aX0ycrSDKXnfp4NgOhKBIF8kSlKdc4558xIlbYoR7vybmgK/uqrr86AmkIHhgAeAFHmZAvsKXIAQLHqR2VRygAT+FCwAA5As8SAIbew552nkQiCNgBkCldfOcESSHsni5SC1T9vvvlmZtF6D5npB6CrTuY25atfKXy/AZylEiAj3TTwBgQsYvV9+umnMyDyrLbpU2QOwPiNoOpH9yO3PECp/mSMEAAd/XHDDTdk3iPgQH7AG5FQPoKhX/QBV7S+QQpPPvnkrH+8i2yQTJ4rBFn/OIvDspb+BY6WitQbECsTUULQyBMg6hPyAciPPvroqD5ERhFHxHb22WfPxjbZGWvIJFLhfoQK+LkSQSAzIKvuiDQiC8j1KeKBCJAtkoisJA8CIm1uaZMxh5QiWOaycUwe5Kwf/e89xop2eoZsXOaAMhkDPCTA2lzymbmQCIK5T9baikiqvzqQlXvNNzLXPmV5X7rUQ7nmpyUDRNUYIyuEQh8bi+YIkDcGjGekRj8pG0GwbIH8kAUdY/zREfSZyxinuxCt/BEGNUFoBXT777quzq+PWm6uQ8YFQQCWgB54J4JgsnPBAxjr85Q6ZcwKVgcTdNlll83IAsWT1hRNcEph4403zixl3gbls8goJ9YPV7n///Of/2QuSQrP/5QtwKUoKTSTOE1s9aKMAKaxY0JTNhQ7hcNlyJuAkPAgGGNpiYG3gDWf1jxZrcoB6GUEQb4VioXyUX+KOVlTFKn2eYd7ABhFxBr1HvLgOgU2rOQ8QVh66aUzeWobC5MSRRAAbLKkU30AHMX2xhtvZBY+EkZR6yfvYinpE3VVF/InHwCKnHnW/6xK/yeCwKVM/ogeWSeCwGvAQ4GoeIbLHOiRaSINZMbz8PDDD2fAB1iQTZ4GpMtFpkBVvyEY+hXBBN4sZr8pcBeAN06SG973AFOZAIosgYO1dWCMICBtZIX88IqSp/4HvuSu/40bzyMf7REEY5KHwLIVILMujkgihsYz2QASst9ll10y0qFdgCcRBGXrc/J1D0sXQUCQ1Uv/mieeA5oJjJFDBEE7tcm7jQ1tA7ZFggDUtI93Zf/998/GAYDlYjfO1AM4qgPvC2ve+EFmyJqc9CsCZnwoH4EmQ+MQSdcGZMOYMieBb/LckYHP9DvSYPwjfUi8cYNAeWcaT5YRkCSXcadtxim5mutXXnnlGAQhxbcg6PSCNhtrKX7GWNK/CEJabjMm6CyxSAgfGSCiiK95qu3mKL3CA+MicxlitTl/NSQIw4YNaysLysgHMimw1Q5Kag5mJtxTtQehc7JvRBAou7TGl95UHPwUGGueknGxainVtOfcpAYOFCRlAihNQgqBtQq0WPnf/e53M6BAFCgOAKxs1hfrjUUOYCk1ZAFIJ2YPDAAMpcYKZrVSCiY6QkIhmHssGsrWxVKjwChh5bKSWVyUAYVHSVHGKQaB9eGiSFlLFCBywdrmFkeC0uVzYE/5er/v1IEyywc0Amhy4HKm0G+//fYM5CzTIDYUnfcDOvVykT8SQVY+Y8GynjzH7Uu+wDK/Bs56AjAsRlYnK0ndPAPIfY9osNwBExlT+ADAPWSJVAAFcucVYoEBFEst6pM8CAhAstj1iz4C2kgEzwUAYlXqC+u2PBS8CfrUmi5Z+h84+Q4YIAjGlbGBrCEGQNGy0+WXX56RTfJmrbPkyMgYQE58ZlkKKCI6vBHGH8sXWWMtAy1y0R++M37T/9rj/frGGEbuEJ20xGCcIllIgjECpM2ZRFzUBahZQuFBM5ZZrcYWC53MvZ88zQUERh2MffMmudN5HSwhaYf2IoLkMc8882TeBgTcu1nOXP8IkT42TnkMXAAQ0QVw2q98xJjHB7lRF/3knf7niSBjBAGRQj4QEuPBuPMdCx2oI5XqYuwDTiSBN4O3SB+l+B8y5BFxLzlrq7mhf7VB3zIcjCdjGJExbow5YIwwqBdQRgAQieISg/ljXCufl4onydzTVjJBLlKcgLGGwBij5I908JTwUqy33nqZflAf7Sc/BDURfGOWkZI8gu3pSJ/n4zDqJYbO4Vblp2uCUFlUpTc2IghlDxUDcIAry4fSMRmBKwWSXPW+8zk3M9JMYWHuSIGJbmJSKikamNVmwrGSgA9lR0lTvpYd/I1YUOwAiLKk9L0DyFOgyIb7AAMgcVGYgDAdt6wdLFQKVR0QDIrf/yw1dVIuMKMEkgsxBQSyJFK7KLH8xdqkiClPFrl6Am31Ssra/WThe2VTvpSmZQ0kh3yAJVJFNmkHhnqz2t0H/AAFtzmQoUC9W33zSwzKJjPKEQBQ/u5VJzJhZQEvyp+VpFxKEKkSZc/lDtAAm2cAKwBXP32SrHxtIh/3qKM6p6Um95MXJU2uQE09jR9yMpeBiPYhPJ4lL3VDNrXRM6xU4GacqKN6IxEIQQqwVJb+RiZYiMYTksVSBTC+R8iMjZQJlvwAl/YjBOSOUChT2WRiDFP06mPsABZ1T58ji0BNG/PyVz/AYuzpL3XjfTG2Ec7kBQVq2pkCFn1HRvoUQCKb6qTu3q0t6qx/lKld6suFri/1hbakQF7lKNO9ANYcQ+7J0H1+jH2/tYOVL6YFedFn6kn2iKv2mSsIqXFs/pOLsY5YKpe89Zd+zRvM+ld/6JfUr+a692q7v80fz2gTcpbmqDFGluRufJCB8WfupCuNLXI3Ps05bfQMGaZg19RH9JU5RgdoN92hzmSrDH8rw//qmIJIeVKUld8+nUh80n+pTjVB6BxWNfV0TRCaEtuoh7qCICgsRfuyBihcSqGjCZJ/Jt+CrtzmWHw/xZdcg95ZZc99kfknAMyvN1Y9areR27FMJlWPo66yhUtZFCGXLisegBS3mVbZ5lilHXU2xzqbY3edI41S0nfFHKnsQUgsFxPPVyzt/6Q0quwYKFMkecVbtp+07LOqz3RUr/bOE89/3qh97bWnWGfKimWS1reqyKrYxrJniu/J17fY9kZyLAOZ1L5G/daoP1LZ+Tp1VNdieeTHDWcdtKrsGm3hqcKgJwRBqI9a/uqo5UTmOtrjncZJGRmoCcKXo5bP2hvHVeZIfVBS9z8oqT1d12iOVCYI3BfWUVhcJm9RuaeJ2tF3CRzyoFN8rr3nEyi0Bypl9emorLI6jI2N26jsYlkmGXdS/pCK/D2N5NZR3ca2LlXamcoslt1sPfP9V1Z2Wbn5+wxka93WU7/uBIE7MMURTKwehPFhHZFt7UGoPQi1B6HXaJAw2hLD0KFDxwhSBGZ1kGIVGK1+T73EUF1WZXc2WmIwqMk4f5Wx46I1VMU6quo+L1pjZe8vI45F97m17nSqYnvMv6zexbKrZKorK6eZeleVUVdlqksH26Q2V21HsZ5lFnSVPmp2bBXLLiunq7I5FpdzqsqoO8yR8ZnNsarcimOr+FzVJb5WmiOVPQj1LobOAVxNEDonv0YEoT1SUTwlrjhpG7nY6iWGryTbjPIrA9+qMQi1B6H/qCFd5uWoAj5VSFS9xDBktHMBqoJ4M3qjKolupTnSbQlC/qjQdNRpsraGDRsaffr0bamMhK1MEIrWdxFUOwftXfP0xEQQbFMSuZ+uiTFIsSYINUHoyDtUDMCr50idzXGUwgRoTzz+WPx4912iX78BzJtYb8MNY8eddo3NN9kwnnvumfj+D1aOc3514RhJTroGrsa+lFYmCFf/9qo4+MCfZI3q07dv3PvHP8cMM8409o0ch09MTAShDlL8KkhxbACiDlIcXWZkV3sQxgwuLFrxRWu99iB8Tc5B4EHYZYdtY6111o3vLLxoLLfM4nH+xZfFAgsuFIMGDorlvrt4XHvD72OOb397HMJW9aJblSCYEPfcdWcstPAiMWLE8Dhwv73josuubBlilbeiHUji1LCve5BiMQahto7GjXVkbNVBinWQYh2k2EGQopMUi0FSFFKrBykiCFm657XWibnnmS/WWu0H8dCjT8QMM86YbY/6wfLLxNXX3RTTTTd9dRQfh3e2KkHIry8/+pdH4v5774n9Dzp4HEqiuaIbeRAQneJOlirA2sxaYnvAUgSbsvcXLZSy9zsIJ3/UcpV2lMUJdJV1VLY9tsoaeLMxCFWC5Krs8a6yvl7ss7K2lvVRlT4pPld1Dbpo+Y/vGIRivVtxjrTaEsPXdY506xiEXXbcNjs5a9ZZZ4vFllgyvrvsclncwZNPPB5PP/VEbLHVti0Th9DKBCGByym/ODHW3WDDmGuu/6Uabg7Ou/6pRgSh7I1VAKIVlV+9xFAvMaTjv9sjo1UIWr3EUC8x5FOiN7MM160JQvIgrL/hD0e5nf/9+uvxu99eGXv+eJ/sKMpek0zS9WjVRImtThA++/TTOOSnB8TJp5/VcssLxD0xEQTH/Dratg5S/EoC9UFJw8aYkzVB+HzUcdVJPxSDq6uQ/67yspV58Kr0UbNetka7itSnipetkYy6LUGwD3bbrTaLVVZZLXbadbfMU/DqK6/E9ttuEWussVYMHzEillxy6Vh5lVUd8dgEpHftI61OEP766CPx5wcfiB/v85PKa/xdK6GOS5uYCIKz8+U9qAlCTRBqD0I1glhlyWdcLsN9bQlCd83m+M9//iOeeerJ6Nu3Xyy73PJZIoxnn306npfwpkePQAlWWnnVmHKqqcYnjrX7rlYnCM88/VRMNXBgzDzzLC0hr2IlGhEEjLqjbI7crRKnCEiS6EQiGcde+z/F4Ejt6jhsSVIEQsr05mhxCWaKgZFlCqnqQUmXXXZZlilPNjiZ+NL7JYURiCnpkLrJ2CdPg7GjbhJGqZt7kgXBatpnn32y5CyyJrpkMZTNLR24IlENl7XELrIG5mOOilaObHaSWBXzQxT7o2jByLoos1y6WGYS5kiWk7/USdbMlC0zLzPJpiTAQY6Kx7kX5Z8OypGQxwmbEmEVY6mSdURukgbREe0dlCRhkxwYKWGTZ+WDkBWy6kE5VWIn8rJwOi0yKFmQfklXlYOSxCVIaCU7oUt9ZR/ca6+9sgyYUjgXy6kaoa9e+iFdqV3eIRmRdNHFsqrGV+T7W7vNQ3Ogo0s7ZSpMICz7pOyLEjilq8rBVWXvKDtMTHtTNsqijujofek7CcakAnfYWaNxXFbvYp2Mb/lIJLJKV5n8JZySXMppxzJUVlli+tp6EFoSxTqoVKsThLIJ3koybkQQyuqaV0YyHso2BySBhRS+0iRLBpTAUBa6lO559913z1LSAsw88KS/KWiTP+/WNCFlWfS5d7vS92nSk7MsfMDHZN5iiy1GvV+OednlEJKUzlmaZGU5fvmAAw7IQEBbpDRWF3WXnlcGO8pbHXbYYYcsO50sgwiQvxEEyY+AR8oMRxGqT54MyHgn+2MqO8m1qLSMZ1d6Vp1lx/O5NgMnyn+NNdbI7kt9gThoC4IgtbD/BUST2amnnpodRZ4IWnomAVQKRFU3xECmOuXI5CeLobrkQTopP6m0pXKmsNO71Mm9KSBbamtEgoxd6v+jH/0oSyeczlzJ93W+/1MQYXqf+1Muibxs1V97jRGXYFSkSLZP/ZkuZBCZcSlTeanPUj/4LS0woEzylQJZKmcBrsa5seC5VO8igSl+n0g2Am0MFN9PJsaWtMju1e4UzJ7anPqfXN2Tr7e/fZ4+k8pY30idnZ9jqR5JduqDbKY+k5EQybS+7n2eTe/NjzXvUkYepIskPi0xpD5M7bJbSmZEpFecWyLq3qW84tKE/tAu30lJIPujeubbVXy3d+Xlkfpf2cpJspVSXpppuqGMIGi7ZUl6Qd8wGG688cZRqaHTMxNVDEIrgVeVurQ6QajShgl5T2cJwrbbbhssd4cQUXK8CQBKatU8QQCi3mWSAgcT/Lrrrosjjzwy+9tn0qlSWiwYCnqdddbJtl9K/Qq0WF+sdvnagR3rR5pXVj3rn5WKILDyrr/++lHvV6YUx1LtSiErJbRUt0WCQFlIk6veSTmKWQBywAHQyVQJZBAEpACB4LHwt/sQIAofSWLtpMt7pc211fKKK67Iyll33XUzK1fKWiCkTclzIQ+9S52lEiaDY489NrO8TzzxxOzAp1tvvTVT4NpKrtqOjCEV6qENl1xySdYnCMKss86a9ZFgzT333DOQJMSFXJELFicyxHr2g+RJES1Dp/drtzTUQIuMgJD3Se08//zzZ334+9//PutT9eIpoqzJDaExVqQzBraI2jbbbJOBuL7wLspfP/PaIBTnnXde1k6Wrh9Eh4JHLtXLxeOBxAAifeQ7Xo/77rsvpF7W16xEoK9OZ555Zmy88cZZH6knj5PnESIEVz8guerpIlfylM4YkCAIxhfrU58a+9Iuk7VTcddcc83MwyT1MHnoW4AEDIGxPpSi2njUFr89o1+MIWmi1VNbACK5IaHSde+yyy5ZXxgPN910U5Y/5c4778zqaEyZBy4EgTcCcUsprpVpTEl3DJz333//bK7dfPPNWV/vvffe2XzSn+qh7/Sxsa2NPID6WVpznjgk33hHutZee+2MNOmz5O1SJ/MUsKq/csxlc94lJ4ry1FOdyApJR0oRCP1tjFx44YVZ2UjxfvvtF4ceemg21shbX5Ep3cM7Zj7wMpCx/r322muze13GoYR0ykE43Etm5jw9Y97TP6uuumpWZ5+bq0gWefqffMw9KeQn2iDFCQlWzby7JgjNSO1/z3SWICjpjTfeiO222y4DPBblrrvumk3GlJ+d0jFRWd6UnElOifoM4AAnioXCZi0DN4qeQmNtUtbKPuSQQzJgBkzep1zlARrgwWsAJE1miiMRFErd5GYdUeqyV1IoRYIAABACipsSBjCIDeVFWVDiRx99dPa9egAbbeKxAHCAlvXqvYCXmztZOpSK+kosdthhh2Wg4D4uS4CE4FDU3pUUPdlSWupNXlyhLBqgAiApWEoyARll7/2sVCDMswPwufkRhOOPPz6TXfImAFHlAP+TTjopU+SIGSIBWFlYAIE1zv0MTE855ZRMRokgaKelF8Tl4IMPzvqDElYPCt1z559/fqZ0gTByoU/JH+HQZnVCTtyPWHLF77zzztnYQJCAEysO0Xj66afjrLPOiltuuSVrt77V3/4HKsbOsssuG4899lim3JEj49Cz6oKYAVWgjXwYJ+pN/kACIOsbbXYBGn0MCI0PIAacjVWyUD9kSz8fc8wxmTzVR58CE+DDrU7myIK+MVYtNyFHyIYxYWwdeOCBGWFUX8/rT0sk+vCFF16IE044IWsTgAP85OZHuwEg0E8EwXzSBsTCmDVHefGQJWUCakTJOEY0tJllTr7q6jnACGR9TgaWWaRLV5b5yWNjLCKFABNB905jHUGwjIjQ+BvIu5fsXYi1cWmeGceAHfnXF4gBWRsP+s98096f/vSn2TjVh+RNHoih+eR+xBLBNF/cbywaQy79bK5oDxJy+OGHZ2RAXyGoxotxbemDl0Bfkbl3e5d2qCOiM1EHKXYObsb/0zVB6JzMO0sQKApuXFasieuicFgGFLULMLIeKDwTmVULhAChCUm5AT9WCxJgzR+A+B+4AGnKDDAAauBnPZAC85w2AD9KtkgQKBBKAUFgBboX8UjWOCVF8QB7QEeBJ2IBqJAXio+ioESBhnU3KwAAIABJREFUGzAsEgSKi2XIGnUvYKE4k9sbkAJdYMBVmbwJylFHoCE2ApDl10SRKKRJvZXFYwKIKPFBgwZloF0kCEAeUQPUAJP1CrjSe70T4WChs/4AFYBkQXsfpU0xqxOCwFpE+JTJ0vQ9TwdwAo5A0vf60/f6FBEALL73Dpb+f/7znwzcyJAXA9lxj7YBH+1CENyHnJxxxhnZOKGwyZUMjRXWJ7B3mf/aAfwsjxhrLGMKH2kABgAXYABl4JXiN/SRsQbAgQcg00fq2x5B4AUBrvrau40ZYAxEgDqwRj6MR3LQVm1CHoGOv9UDGPoegAFlY9ccUR4vAg+FPkCc3ONvdVVPMkRYjAHtMZaUlQiCshEYciNn7QWa5mfqe3PJ//ocwQamyvJectbvZM174hmfWXIzPpAH7QT6jAF9o/3GFIKLRJCldvEq+M1aN56KBEHdgLexxKo3lowd85UHTvn6kjdFHxcJApKnXmRGB/GaIEDqzhNp7rt4kIxz857HwTOMDL8RBP2tT7VTPfSH8ZOWwYw5c89VhSCUxVLll6K67S6GzsHN+H+6Jgidk3lnCIIBD3i4Gl1AgzKhALkXKf9EEExuVjaWz5UOeCkok/+5557LgASp8ENpmZDYOsVQRhAoQ4odgQDglCHgL/MgsJq4/AEF5XbccceNcmtSXmIJWC6s+TxBAIyUHcUAnAEPq4VCKRIEAKu9rCvKURuVnS6KB1j5DFADbpYxINFeyg0JAgasoHT5G9Cz4ChtSo7FRO7tEQTKG9EAVMCcZQpMkCBgRpmqj/cDLWUCWfUACJ4BZCzkMoKgb5IHAWFj8S222GJZfyFRwEyfAin9ri6AwLigiMWEIBM8F+4Biiw6AFlGEMjNshVCqCyWHIvORZ5Ag1vc2NHP6oxUISsAJxEEbVcPz/LM6C/jy/hFTAGGe8irPYIApIGM38pHgnmuACQZ8hrpHzIy1lPcgf4jI7IBsmQOvNyrrgCJLkPCkF91BvTKTgQhERnzDOHxboSGt0W/IboucuK5sBTA48FaB3rICtAVqwOUERreEPMj7fBRF5a0sc/ThnDREWTK2s4TBJ8j+/pfe/2wuhFS5MsYM7fMKcsUCBzip2yyQDASQdCn5oAlBTLwLsQFged5Mj/VpYwgaAcPE0+edyP26kFvJIJAJuYcr5l3GLe8Ht5j3qsfEmVumhd5goBs8C4hQlUJQpcFKWJ4OhkDrK+xl4COoEAouqpHBY/9W76+T5AfhWliVJVfYsfWDoGIyyRi7VGwABvwJ0vcBKfYLROkYCNKi1ID9BQ160IZXK6Ag3tWeSariQn0PI+9Y/aUoonucyAE3ACg51kL6pHe7xmWDKUPwCgbFpgyWE3aoE2eY0nlA+C4sMnG90DEOGMpIQjmLbc8i4SSoRSV6TuWXh7oWbysIS5kylr91FdbktLzv+fzh/mwoik8ilIZKeIdwLGQ0lo8UsJDQp+wqljBLEseHmDtb14ZgMT9r1wEA7Fh/QNJwKBfkLtk+fpMe4ERD5Df2kVGXN9IIpJm2Ui/8wqQl+f0i/aSIaDkaQKqCA95eQ6xA2yAS130n/4CYNpAySMU1veVC9z0XzrG1/uNFa53AE+xWxpCGHhXyIj1rg3JwwWAjF3jhwx4LtTJs55BMhBWl373PSJjjPJeAU6Wsr5igRq3CEKqi7pz6wNIz5ClemgvAPNO44PXBOgjFoDM+NYGgG1ukDFQNSaBFzKEBPHQKd948S718x4eN/OLB0Z5aZcJeamb5xAAfW+pTX2UbY4Zw95hLABPYCqWg6yUgyirk3r7TF2SgaBPEWPtMM5cxiNvBDIlnsKYQgjcqw/TkgGCoQ5kqM76BFFEcIxb9WDZ6xNznXfAO8hbvRAvpMVz+oOu0Y9p/OV3ZPBeaDsyQe8gXuaP+WaMGaPmFyKrLgiKNvrMGDN3JghB0FDrNfU19hLQeZQbC6MqwI39W76+T5Afa8h6X1X5deQ+M7G4k/O7CJL0qhxCUnb8bVcdtQxAKd90lbWjEfNPyq/Vz5mn9K2nIxcpDqKK/Ku4T6vIqM7FUOdiaPU5UjZGx9ccqZcYxhOm1ksMnRN0Z5YY8m9O62usDxZbinTP31Nl8o1LgjCxHLVM9ly7vAF5QlRF/jVBGD2BVdk25Sr74ButQZsXZedAVOmjrpojZe9vtVwMyTvZURbSqmdFFLdQTlCCMHTo0DGSNQGzVk/W1Dm4Gf9P1wShczJvRBDS3un8W6oovypWZpmC6irlV/Z+SxeWFDrrQSg7BKbofamyN5psXeNC+VXpozL5p4OSkoyqtKMM7CZ0sqayelc5KKkokzLwKZZTJscq8m/FOVLs/2a9bPUcGTNfxdciSNGg1RBXr149o2fPr1JW+ty6ka1JxZPVOgdRnXu61QmCiTJ0yJCYdLLJKrvwOyeRsXu6EUEoK627Kj9rrOIaOksQ6nPmGyfrqZcY6iWGeomhg3TPI0aMGMODUDZpBN+IrBY40QrXy//8Rxx52CEx3QwzxIjhw2K22eeInXbZNY46/JB46cUXY/ElloyDD/3qtLlWuFqZIDz37LNx043XxWyzzR7vvvNO7Ln3vi1HEiYmgjCxLDGYlxPSfdre+4v6oqrlXbS0yyzvYtll90zodM/F9tZLDGMSzWa8Kt1yiaG7EgSDducdtom1110/FlxwoVjxe0vFbXfeF4Omnjr69e0X6629Wtx935+i73+PNZ3QJKGVCcIZp54c/fr3jy223Dq22mLjuOb6W1ouo+PERBDqZE11uuc63fP/EuzVMQhjZvOsEgPSFXE63TZI0aCR7nmVVVePeeebP9Zfe/X4818ei4GDpo4br782Pv3kk9h+p11axhJuZYLw10f/Env8aKdYfoUVY4kll46NN928ZeSWd7PbXmZrUVfsYuho7brK5BuXMQh1uueaINQEoSYISUdNSC9bj88//7ytTOHmB6iKttoSA4Kwy47bZh6CGWecKZZYcqlYdbU14sMPP4izTj81fnPVr+PBh/4a00w77YR2HoyKjbAX2BJNVYAbXxW31/pnB+0fUj7/aLc9s/TZrVbHRh4EoC4oK3814wb0fJEglLkGy8ouxjyUWT5V3NcOaLEPPV1l5VQpuywAr9ivzZbdrIyKdarSR81G6Fcpu8oyQJmMyp6r4pqv0v/F2JEq7SjTFc3GoFQhyM32f1fNkSo7NOo58uVoZ5VUHcf5vu32HoS11l431t/wh6PNDw1cZ/VV4sxzz4tvzTHH+MLZDt/Tyh6EU046Mb4562yx8MKLxDZbbhp33vNATPbfbHItIbz/HgQzsXgQnCyXz9zWbIR2swBRBZCqRNGX1buVtnDVMQj/y7KZn+dViE4VEtFVXrZ6iaFeYhhrHMpSj267ZeY12Ga7HbJgxHfeeiueefaZmH+++eOQnx0YZ517/mgMaqxf0oUPtDJBuOiC82LokKGx+ZZbxcEH/SROO/PcUWfzd6EIOlVUIw9CWeHddReDMxqc1Z5fXsmnGvZ5FRCvCUK9iyHvCa4abFkThP8tb7Q316rMv68Die6eHoS2tnjtX6/Fv157LTvmc6GFvpNZvJ99+mk8/vjfol+//vGdhRcZ4yyHTiFUJx9uZYKgbnYyfPHF5zH3PPPElFNO1e2WGL5OBKHexVDHINQxCHUMQkvEIAwZMmSMGATMJ783tBVjEDqJ1+P98VYmCONdGE28sJEHgcvTPfmrGZbv+Srrq2XeieJnza5vy0HgXPh0VVnvLhPpxB6DUGV7Xlk/FmVZde22iuVdpewJHYNQpR0Teo4UYxC6wxwpm6Nl9S4e3lRFjzUbp9NojnRPD0ITADOhH6kJQud6oBFBqOJBsDtAAh/Z0SQikhDJBElJjygdiVHkXxfMJ2GME9tkdCuep1G2viqZlFTI+aUB5UjII9FLGfkom/xFDwKFYdlBYpcUZFhFabS3xGD7k9z22lVWTpWy84pFoiOJyORpkYAnJRsanzEIEi2ph1wnHRGroiKd0AclSYIlA2HKKKrPrrrqqlEZOyX9SRlAjU3JouQkkVkyPya1C7GU9Mc4cVUJ5KuyDNcIRLyr7J5GMQgOtJNqPKUCT/1WJb6hPmp5/HjZaoLQOdyq/HRNECqLqvTGzhIE4CV9sGx4stMJAqSIZW9LBAHAyI4nCx4glh422+Hxs59VIghSscqslkBcnfW7Y5Nlb6tKEPJHLXtOBkgplqWJlfDLMehVQLw9giCjHTIjt31XEQTpjwET+aZ0vuOTIMjgKF2vNNfNEARpvWWxvOOOO8YYf1XX7ouyrOJBkgJYP6QkeLIiStMt3bIfWRGNQwRIhkYZAqV+Bqr5bJ5AVaZDBEHq6O5AEJz3semmm2bZRvNXTRCGjObBn6DbHLvrQUmdg5vx/3RNEDon884QBLI/6qijstSz0t8+88wzWYpfKYEp4UYEwdkL22+/fWbFs/bkipcit1+/fnHFFVeMWg6QGph1J0Oke6V4BcSJIEjFK1+7y32+YxX++9//joUWWij+/ve/Z0REmWkXg9TBAIPFuPXWW2cpXlmVefDxt8969+6dWY033HBDlvIV6LHopaT1v/S3kiPNPvvsscgii2RkRp0RDumhjz/++KxuCIo0z6xbBEV6X5aetMa2YEpTK70tb4m6k41ylYcgyLgp9bV73QPYABrPCMIlFW86kZUlKJujNXfgJxWw8qW7lXYZmVE3ZdkmrD7qolyEDClZf/31M/nw+PDUbLvttlnf+E5/p0vqXySAvNRZP2m/TJJS8bLUpf/Wv6+++mqWaltfSL8rTTNAc59dJkiDtupnIEeG5APs08VLpQ28Vn6uueaa7BwP6YG11xiQNtkz5ChltPukzJaimpyMU+mMtV/g6tlnnx2HH354ljZ4vfXWy06iJBPpiD0nAZmx6VK2tMX6mkyNP2mSydxz0k1LPaz9PBOyiBqDZKdu2p3SpBuH2r3aaqtlhNVYlJ75rLPOyj4XNC4lNDmZU/p5ttlmy07fRVSvv/76TLbHHXdcVrfNN988kxfZeY+/3SM1tP6Uajld9S6GehdD59CjGzxdE4TOdVJnCEJ6M+XI3S9fu+WFnXbaKbN2ExjzICywwAIZWLtef/31TBECbecSyMUObClnVtqTTz6ZAUbyGMwzzzwZeFFwd911V6aAKT73UpiLL7545gGgCJ944ols+QKJAFrc8hT0qaeemt0HNF3AEVhS+oceemh861vfypR9niBQzueff34GjoBXvnv3AuUNNtggIzWXX355HHDAARmoAR0XJfzNb34zA2bvB4CuRDiADlDmCgaUJ510UlY3zwE/wHXTTTdl7eBlOfbYY7Py//a3v2WkwBIGWaZ7WfisRUCiD1wIzPe///2MYKgjea+00kqZHLUTkLCyeQaQHKSALO3qYC2TE7JChsp3L2D3Xv2aPDfepY1ImcyR5AqwkS99QobIF0+IMQHIAKD2vvDCC2GZ55BDDslyZHDlqyswRgyAq8tYMIbSBUgBJuBWL+PhRz/6UdY2ZGDGGWfM5HfggQdm9TdmEBPtRlbIMNXVuNMm3gNEDAj7DulBeC+44IJMFsokP5cxgWCRDw8Uz9h1112XkQKkT1kIknGDYCkPgUVg5pprrqwvyeTxxx/PnvGd+8gI+CMT3qtN2qC/vQ8RRGKQHXVDOI0z7Vc3XhJklQfPcp45YOwYB8iG5ZZG54DUSwzjaYlh2LBhY+RioIyL2RxNSqwWGx1fF8WbMsmNr3eOq/dgwRRnYvfNvqeKTKrc0+z7J9RzQMv423///Ut3WBgnxbGSXNwO+WIlUYBcyKwi7noAQFEus8wyWbMod8sPFCcZOnfBuOe69ZviUg8AAmwAUX6ezDfffKOUNRLAmmeJzTvvvNnnljgAkrEAPFj4AH3llVfOPkcagLtEY6xbF7LBwlRHgGGNnbLPEwR144pGUB555JFM8VLQlC4wB3KsR+AM+CSDAhYsUvcCA/UVo5EIAvkAdiCh7lNNNVVGdliX5Ko8FioPCHBHEI455pi47777Mk8N4OGZSd4bVr17/bASgbMLMLOUgabAaPLiDfFuXgxkzDsBFVmrM8IFYMiC7AALwoAg8AohQMBaG8kmXUAKqIlB0e8IB8sY4AF9XgmEiPeD1wfxYeECLbL1t75UhrKBFMveuCRD5AM4pnYhDsiHz5A01j/iBuiNAe1ElhBPHq7kITEm9IexzrPAk2PsAVdLYmTpXu1+9NFHM5LAU0HmCALi5kLs1EG7yA6BQD6Au/Z6x2abbZaNAe017v2tvueee27mlTBGvfv+++/P4lYAtzqLOUmeIQBvfhmzyJBxbsmEJwuxRHqQFe3QR+ahse5dxqe5ZMwst9xyWb2bWWKoulRW1F9dlc2xSr2bzcVQtlRXJUi0mPGyarBtUwclmWjYMMXW1VeZ4Mo+a+a9XVVOZ99tACeC0GqnFI5N2zqSZ2dl3dHz5Gf8sYKryi9NLEqLNX3llVdmVpoff7NWgQmlmghCWQwCgGL1+M4PxTlw4MAMIPIEAYhQsoiFclmcLC4gb/7MPffcGRix4riYKUlKnuJn0XLHepYSTgTBvcBSWZS5/4HGzDPPnP24KF4WJUsRIFC8lgv8ACNzluueWx3wA3NKGvj63NIEsGLpAWmy1l5LEYAPCPG4sHKRDcDtHVzcgApBQLaSBwGhYvEiw6xdYAq8kANAgyBce+21Wd1Z57w6CA1gBLIAMHkQfKde2o6sAEJkhTy0FdnxPnIFPu7lNeEVIVdLAGlHFkIBiO0Q0S+AnWXvOWv86pxIRrL2yQVxQjiMIX0MKHlA9L/xAKBZzmTEY0GeLu3Xn/qVbJAn79MHPEWAHGlAAHmzjB1lq2PyIJC38QB01cUcSB4En5G995NfIgjJg4CgInFIivu0CUF2r7oiCPrUe3lDkDDxDjxFCIM6IpXGn7GELCAFniM749ASDu8OkoOAGDfaxRPHo+B5bUE6eBsQQOOeV8y48E5k0f3ucT/PTwraJMd6iaFeYhgbjOqW99ZLDJ3rts4uMbC8gA7Fx4MAZFgsFFKKQaDcKDxeBCTE2igvAcVMiVPelDB3K6uMdZQ/wIg16j0sPyQCqAFDLlxAjJQonxVKqVKMvA5AnDWLVCAvCAmPQrosjQAB5QApXgYWWtotwAoCeAgWAGKxcb+7F8gDb++zXsylzQOBFAFRFi3i4n5kxRpzssZOPPHEDJgAqzVrYMNS5EEB5qw+ngTgijBorzgAQEs+wBmh40YGesCdNwJIiVNwATEuassb2gSI1EmdgSsAUzfARP76BoiRPYCxzON/AGiJhjz1laWAb3zjG5mstdeFPIgB8E7yXnDBBTO5AG/WFuLDC6IOSAHwB2pAjPeBHPSFPkZIyMTFK8OzylOFpCUvK2DmHRELASQRGc8CXO/W32nNnazIEzgiGGSsjepgPPFUaCPr3TILubtf/cnO5+pnXCMzSbbAGDEhTyQVkKu3sWSMute4tRxg2UPf8NCcc845WZ8qF+DzTCEGSJHxYoyZN+YCAo4EexfvC7BHwnghEEEEB9HTbksz7tFXxog5Rv7u1XaEkbclBW3WBGHCZjytdzF0DrcqP10ThMqiKr2xswQhFZqsEQpbjAGFmY8Gd18VF2dHW7hYWsoFFlzZ+atYdplrFOCKNUhXfdTyyDF2kfBqkC+wRAqqupjH5zZH5AqxQZoAIpAsXmX1zm9PBOKeR9wEHCIJCFOVU/q6epujYEOEj6cAac578prZ5kgWxbGNKFjKsWxRnLN52dUxCOMpBmH48OGlMQjJTZY6pdWSNZlYI0eMyKrXs1fP6Nmz12gD9vPPP4tJB0wa0WP0YzM7B1PNP93qBGHwl1/GyLa2TPm04lWFILQXg5BvT1Jk4g24Mbtyj3dSdggCTwBXeTGWpyjbsvcXj1ouA5EqiWi6cn21Ub3H9/oq0LR0kAJMmyUIzR6UVOX8AACd4gfSro2xJQjut4yDzFo6SScsViEI4jt4ozoC2irtSO8ynhCUFLPTFQShylbQKksMrTBHGhkW43uOFGMQmpkj3dKDQNBSFB+w794xYNIB0WuSXrHu+hvFjjvtklkar7/+r9h6843jjnv+GH369G0JvGtlgvDM00/FAfvtFf9566245NJfxyKLLd4SMstXogpBKFa6ivLLiObIkdlSQVJ47U1096V7Gx0CU2YdlXknyiZtfdTy+LGO9MeEPiipkQehvTpWIQhd7UHoyBPWVR6EsjlShSDUXrYxvWzJy5L02URDEAwig0a6Z9kcF1l0sVh2qUXjoUefiBlmmDE222TD+Nerr8Sf//J49OlbE4SO0N7geemlF2PWWWeLX19+abz99lvxs0OP+NoRBOv11qvTJUCPK5NlZ3+2ZQZuYGv2rFJR3ukSO2Ct1tooK0o0v2DB5GVzr/V9AWwUlXXjzhAE67DWedOVlJ81bOu11nHLJnuR2LR3UJKdANbY1T9fjvXyySabLAtmHJtlF4Fzgvus36fLurW4CxHz+UuduN7T4Th5gBYzYMcAq7eRdZqUn7LI3jJDsc7a5seuBe9lPLS3xGDN2zp7ugSNCpi01DOuDkoiZ+v1xpuAz3QVgZ2MBDFaYkhB4mUEQeCkuBKxJC7Bh+IuxNaQj/iZ4omgVUi0+AfWqLLTleQozkXMiHZUOW20SMiK77eUIu5DzEe6im0VuzNo0KBRuzXEeoizsNUyf3VmjhTLMV7pB7EndEeVslO9xe1YavRsMcC62cPEBK/y5rQnI5+Ln0rbl8WWCOotmyMdzfVu6UFIBGHXnbbLCMJCCy0cKy6/dDzyt6fiyssvjU023zI222j9uO/Bh2uCUBHqKdxDfnpA/PSQw0dTBBUfH+e3ddaDYDsVhQmEKDIgRCkLQBPgp/12BVCoJpVIcwGNLq5sblX7wP0tiE2QWQp+owgAkABEClAgHQVqgub3cyurLAbB89zBtje6eBD8beKqa1IigvQExAle8z5kJT3jOYrI2m1SQkWCkBSWiHXnD7RHECj94j705DlJHW0LHTLhSgRBIFxaotJ2srLEos3q6v9ivdUj7SIRzIds6Rv3eVb7U72Vmdqb3u93cruTVx5cKXGyU0+fK0ebk3x8xnPks6LCFfAnSA9BUHfP5Jdd82vgCfQSaKQ6FEFEm7wvKWTLtsoll9QG9QXG5J+WCJQvgFIwIYKQxls+oZOylUVeKXAWsCtbICOCYJy73Jt/X7rfe9VNOxPYq4N4DwQwHQIl2NEuHveYA3aUCLRVrufTspp6+/EudUtBncrXBvXTN/lA30QQlJ/62r1pDninwEnf2+LqAt52x6QTPIvyT8+rV34MeTbVIbU3Pz+103xK40gdjAXvTn2bysuP8TTPlS3403dpvBYJQnEZSN3VJZ8LKY0vO2QEobroKEGh7REE7xawbEcKY8P9tudOXARhx22jb7/+MfMss8TSS383Jpti8nj26Wdi9TXXjHXXXDXuuOeBrINa4WrlJQYD+InHH4ujjzwsA8Vfnn9x5a2E40u2XUEQBEABIZMEkNmGxmJNk0Y0trgEWwCRCX/7DqlgYbpfkBYiQZmmsaUMUd+2BJrMnhdlzgqlvOwZTxcw5CGwK0HQGiCyu8IEZgWJzGd1i+y3Lc1OAu8HVixOBAGA2x6nTu4R7+CZFIGPyNjGZu0a4CI0diCIendOAMueAlHfdESy+vEg2OFh+6f3iVQXbEn2tvGxTFnsgtREopNRIgi23vGckLEgSxaT9olup6DtSCAPIMK7IEiUR8auADscbFckN/VVvu/IgxwRH/dQeLwnPDi+U0baOQJAKU/KGxAgUXmCoE1iQwAQOWpHOjyIorWjBcjwApFfkoFTFcnKj90J6u457bWbBLGg9BFNMlE+S90ZACzbRJi0g4I3bngMAAN5kokzLARb2p4ILPWt8wq8g9xsD/W8tjpS2sFFSJTxh4waB4IGycf4Sh4Eni8gh3AiCMYm69fODmOWVZmAV515CHiWeAPsPFEv/agNtjSSt90hdqPYgYEYIgd+7CQB6LwVCAGyiEQLJHUGAjkBSbIzj9TbIVjaB7jSRX52ZRg3ZGiLqPvUTdyJuB4eIf2cCJz2Guv61C4V/aBtSI37tMOzwJeMxIUg29qoreanrb/aSheSGZnaPWJnhzowJmyztZPDdnWeRttF9bv+tFuD10Mb9Z/+SFur7dTwXv1orCRjwPvEG/nODiDtQOIQIH2cSJx22M3jHuPaeKU30lZYHhWyIjeExbh0Pw+pemqfPqIrxpogfP7552Nkc9RZeXbq/1YLUqR0eBDWXGudWH/DjSKiR5x1+qnx17/+JaIt4u67/hCHH3Vc7LzrbmO4vsYXqOXf08oEIdXz5X/+M/bbe4+47sZbo2evXhNCTO2+sxFBMLFNvKLM04QAOFxsLDPK1eQ1GSnxomvUcgKlQuGZByLRjX9ATEGYcJRTCtYCaoCR4mVhmIi2KVJqQNnJdMlyoCC5Qk1if3vG0geFwEUM+AARQKbQ1ANwA2PARmFRgPaRAwz32lJGeQFAFgMFQylTmBSjd/gfuLBMLDHwlPicYk0WPFc9ALcF0TkMwJHF6nMXpU4pqYs6pTZRxsDCFj6ESPuBLYJA+akPReUiH0DoMwBCFklRIwgULdKAmJAbsgE0kDfKnxIWYAqQEDXEDKnhguf1AeTpyOe0xMBjQunrZ+2xDRNoWl6y9Y5iJk8Aql/0nbECtL0bELjIgyzSHn5WM/DgTWBdAwcAql2IjK2EaelAm7TBZwBF2foHQciTqXQSJXDSv/oJoTS2HQ6FuPiOFW5sWerSdiCSlhiU69JP2o2Y6Gv1J1fPpvokS5hceApcSKR7bcF0bkE6AdO4QJ6MMzLXRuNA280/faXvjWfPIbnGC3KCBJM50gKsuMeBtDGjvHTpG+cvGAuCMgEwgpuOozb/1EMfwADjTFnGMeCW5K75AAAPe0lEQVQmW/PXeCcf4xj5dG4DUoTEKhsRt2RDHpYOjDWfaYfxhdDwSBgLSCNSCui1JxEEslUGAp+fI+6jX3zneUaXuW5umzPmGM8EeZjj+pUxYvylEz4RJG13IVSIPOJLHzAabC8lY/NHv6ddWQgC8mBMK1t7jGXz0zuLuq7RUkm3XWIYMmRwbL3FprHqqmvEjrvsmgnegGlrGxmDvxwcK39/ubj3j3+Ofv37twTQtSpBMIBu+/0tMfXU08Qb/349U7Dbbr/j19KD4AwAe7xNEgqXMqfUWCTGju/s06ccHDyUgDPt50/n+lOAFGzKq0DxUKaUsElOaQMz7lNAzxpME5Oyp3wRE0QD0+cCZLEADwBLwbGa9Q0FAwSthwMCHgQKAilRhu8oTWBC8QIzZMX7kAnto0SVL9bCPEF8EB6gbd2dgksehBSDwGrjmiYLitOl7pQVopRPYEX5AAbtojyBgXvIC/iRE1LiohyTtQ5cyc6ZBOTtXQAEQFCaFByCl2TBgqJsWanazRtE7n5YlkiWJQukhByLSwyscxYjhWkN2++Uh0F7ARHw1U4giQTyGLByyZN1zVPDikMkEATAghggT/qa5aj/ADtZAReX+3xGLixJJAmQk4U+1odABNABGERPXbTBOAAC+hhoereLVQ8MjCHyI7v8UcvqmQgCkGb5A1YXubPukwch77K2HAfwxAIoQ52QBCDpGTEHwFd/+zHuUk4JdUUaWLQ8WogcAmsMAt4Ul2KeIbzapN/ShZABd3MTWdCX/udBQi7pJwRH/yKgvA8IgPLVE9k0D5ExciVjljUSSxbGkLKNTTJGGMjAhcypP8Knfso2zs1TYE3GnhMLZO6oBysdAdV/X8VzvZT1kbFgfJMFIkUfkGHyIKS4GO9GaP1vbDE61B1hM1ZdiLBdLJ5FavWNZ5ACJISsbYc1L8gHiVS/lLWVfMhxoglS1BGvvfpqPPUkN8yAWGbZ741aDyVQgrjvnrtjxR+sNIZLZUKxhVYmCA8/9Kd4+eV/xnzzLRALLLjQaGutE0pexfc28iCU1TMfAETp5QmC+00qIGpCsUIoDhYNKyRPEJQD6JJ1yPo1MbH8pGzzBIGVzpql/ClzllK6jF0KzLOAnjJhcVJeiAUrn5IAzqxJwJeO8U0EAXhRhpQFJew5Ll3LCupBYbMwUt4EipTFp41ADRCyXhoRBIoZaPFYAFIKmkVG2RYJgrrxtAAAsqNsOyIIZEg+CE86xIpSJCvArTxEg0L/ivi3ZX83SxAQOm2gdL0XMJEtEKRo9S8L2lgALOqOIFDsTgRkmSE3yc1bRhDIhus9gZr6p8A+BET7EB7yUy5XtP4AogA7EQSAxpIEiuphjCIp6gwcLKUAFN4h/V+VICApSI64CoSDqzrNEWPO+EFieM2AcyIIxg1LVT+RI6Kg7giMMWrskQtSh9yol/HZHkFgyfIa8AYZm7xG2utCEIwzy0yAT3k+I1Pkk7zU39IB2QJohBhhUB6S5FlzGzE1t8oIQjrUyWFN7jMPEXnjTN30hfGs3QgComi8sNpZ8YkgIEb6Eum25EMexjQSRSaILG9R8vK0RxB4RbwLETG2eLaSgUJGyjXvzW/94W+EQ/vMdUtHyE6RICBf+tQS0kRDEFoFtMamHq1KEPLAVfUI47Fpd1fd21mCQPmbTCnwLdVLLIBJhL2npDuUDVBIwVYAimeApQzIufWVlYLWWLqsOcSApYnxcyeyIii2/HIdBcTqo3wpO94JSpDVqZx0oiFAoHRYRMAJuFEYaa0e2WG5UoYsGCDnspQidoDCtYRC8fjb+KN01JH1jDxop7ak+mkDAOPuBNSsX21nHVmWAQysEuQieWK80/+AhyzJBQhTwFy5wMI7kqyArM+AJUtamdrC0uNGBVQsTR4JQOB/XgEXcoB86CceFAqZZZXew0sCXNRD/2mzMe096q1vkB2eBBaificbFi6lSybGGXCzFMXqVm9Apf28A2RO4XqGR4a8vYflqB4+Izvv4TVJS1z6FhB6N2WtXMDkfdqFNCZZudd7EAzENmWQNK4QA/2onYDKu3k8yJjcjFng6QKM2mzsek6/IyfKRuCMhUQQlKed7jPmyIvc1Yu3TX8gEAisd6Zxhqwgzu7l0dI3+h6oIz1kCGDVTz30l37V58aZMe1d6fRJ3jlzhJVOhtpizpkj7gfU2qkOntVXPHDKSIRXXwhgNC/USR8bo9qqT4x7Y8Vn5rS+BLgu73YZM+rvc/1qTmmXsa3vyFlfIinqIq6BnBAN36mX5811BgdvgjGfPN3KR/DVSVv1sba7zzvzB6WlZUvgr895+egzHirPpvGuPspTJ+OVTPyoF/LUFEGomqyp1WIQugp4xlc5rU4Qxpccmn1PI4JgYqfJnd5RZQtX2Ra24k6Dqnu8i+8rm5CsPROddZqURX5dEGFIsQOpHWXlNKq3pQaKMgUSJuVXJIHNKA1lVdmHXyb//OFNCAlXNUstv62zivy74hAY7SirY3GMjqttjt5TJv9iZHuVcVyUmbK7+qCkvFyq9FGVs0IarYGXjTWfdVX/d+VhYo1kUtZHVbY5lt3T6F1dJaNuG4PQLNBMqOdqgtA5yTciCGWlV1GszSqoKsqvysQuez8XZwrqaw/EqtS7vXMQ8rIa3wShWKciiJURmSoH5TTbjvqgpOGjbTMsA+RGZLQ9EO+qOVKl/8vm2tdljpTJsQpBKB5H3cwcqQlC53Cr8tM1QagsqtIbJyaCwIWdzmD4uhOECan8yLYmCDVByJ85UGblNwOsnfGyFUn0hJwjlQmC9RoBGsWT0Tqn9ieep7Fga1LWs1p5rb9VeyTJTyBUVfl1Vw9CfdRyfdRyPm6lDCCqLPHURy2PaHgiaHfwsnULgoBZGZT11bwEythp86VNnE8WD/roSArdlSAIPLJzIV21+7T9c+aTjJq18moPQu1BqD0Io595k8epHkOGDBkjm6PJlhdaq0DRsJFt8emwthjYt2e0Ro7GVpFMXQ+D2rjNX1UIQrPrq2VlVwlSrLJ2mD9SVXuqgl9xFDQbgFUmk2LZxXZUdc0W61QlTqOs7GKQWlmdq6xBNxukWCVwtIocx2eQYtUguWK9W3GONBukOC7nSKO53R3nSOUlhjIIyje4I+u4I2VS9buRbRE/fODTeOvLkXHoAv1jjZn+d6Z6MbBpbOqSb1dXPdeeXBop1WafGxdtaK/Mqv1V7JOO+mhsPCtVx1x7a/dFZVcFRKruYmiUiKZMJmXvL6Z7rj0ItQchnwei6vp2vcRQLzHYttoZL1spQfh8yLAYGr1jZFtbTDpJxEfDIqboNSI+H9ErJusdMXiEbU4jov8kPeOTYT1i+gE94q0v2mLKPhHDRvaIESPbYkDviI+GfGXtfzS0Labw3MiIL74cHNNO1jfeHdIjpuvbI977cnhM3neS7F3D2yL694r4aPDImKZ/r/gge65HDMtWNtrijS9Hxoi2tpi6b0/7k2Lyfr1jRFtkPwN6RXw4NGK6fj3i3cFtMVlv9RgRw9p6ZnX+eGjElL17xMdDRsSkfXrGyLYeMWRkW0zVO+LtwW0xXf+e8cnQtujTK6JHW1sMGdkjJpsk4uNhEQP7fPV8/0l6ZJ6Lz4a3xVSTjIgPh/WKqfr2iM+HtUXvrErDYmTP3jF574gPhkQM7D0iPhneK/r26hF9erbFJ8PUwe8eMXnvHvHliLboFW3Rq2fP+Hy4dkW89WXE5DEkRkzSN3tX314RnwwZGQP79YqPyaNPxOfD1HFk9O/TK5PxdP2/avMUk0QMafNdRJ9ePeLjwcNi6v694/0hbTFIPYcTZI8YMEmP+HDIV+/7YMjImKJPrxhKiD0i+vTsER8NHh7TTzpJvPNlW9a+ISPaYtjwkTF5n17x8bC2mKpPxIfZcz1jyH+N9gGTRLw/OGL6/j3ivSHGTY8YLpVyj57Rv1eP+GTYyJiqT89459PBMc1kfWPIyIhhIyIm7zUiPhjeK6bu2yPzDmnviBEjY0T0jEl798jaN02/iPeHRNantil/Obwt+sfQ+Dz6xJR9esRnw9qiX8+2mKxPz7H2ILQiQRCrYu90vcTwlQSqRLFX9bIUyWi9xFAvMdRLDB0sMYwYMWKMJYau2p5SNmmLWy+qWkdFD0ZXBZdQGK6O0stWdc21UvSpNlVRfmV9VKVPyp4r9lHZPWWpbCekddSKBKEOUqyDFOsgxf8tIlchiFV0VpkHr6twpKzsKoGkVc5B6BZBil3lPq0JQmspv5ogNHZDju8lBqcSyjNQexBqD0J7RL8K+NRLDI3ndk0QOpZRj7KTFMelB6EYXDKhmd+49CBUCcAqA59mA3AmpPu0agBOq50S14oeBEfkOhq1swSh2SDFoky+znOk2SDFKnqrTI5VTrIsAnuVYNuy+dcdTlJsVkc2a2gW5VTPkTEJQh6TKgcp1h6E0fdNtLprqF5iKD9GtzsEKdZLDK3lZRvfRy232jJcs7sYusrQrJcYho2RQK/Rjgn6f7yepFgThJog5M8gqGMQxpy0XTVHJGSSAKezHoTafdrYxVwlTqcmCGPuIqkCUDVBGF1u3TGWrfYg1EGKY5w21oz7tBig6P86SHHMCPGikiiTkcx4KdVre9s1qyyN1AShJgj5YMeqRKerzkGoCcL/t3fGSAzCMBBkJvkBDSX/fxUlDT+gyDiTFBgbHxoFDNkPpCCWfL47nW4AEIIHIdbFrCEw8SVh1deVgBGrdqT8dimvINe0CYFZngCvEJgU+Ij1VdUDYWl+KvJXgpKUGgmbU78re3NASznH1hpR2CFqZFu7zY1nKpM+Fp/Ov9WI4tO6Qo2kaq2mewQGAQYBBuGRnwPONXqv11GqQYQ1zWFnBxIDUwxMMWg5GArryZjjGtSWmEgAAgABgFAZQJimqWnbFoDw+QKKSY2gpKWxM3w6xhzLEhMyXGHMkaAkgpLiBUgKGldoaDwINg8CAIEpBoKSCEr6vhAISno+FxKacvl4Ib9fznif+ccy5njdMUckBgACAAGAUAVAmOf5Z1HLCjWovFZTBpwrAASvEJA706fWEJg706deOQieJsXSWJtq5Izr1lojikmtpK/mzMaKkVTpW8pDR2HZrDVCUFJZYqBGkBg22QkYhPUBObL5pViWI2NklUvk6KjlcRybruvwIOBBeH+Bs2uEoKT95r6UudkKos9kojEpYlLEpFiZSXEYhqbvewACAAGAIG7zVB41TDHsBzoABAACAKEygOAlMXjJcKnGqrA8d4kjVwOGYjbKS2KAQVgnOXrtYqBGtiWGF7VRa6YbG/HcAAAAAElFTkSuQmCC;" vertex="1" parent="1">
          <mxGeometry width="520" height="118" as="geometry" />
        </mxCell>
        <mxCell id="nq7OmTxhRkzKAlg708lr-3" value="" style="endArrow=none;startArrow=none;html=1;startFill=0;endFill=0;" edge="1" parent="1">
          <mxGeometry width="50" height="50" relative="1" as="geometry">
            <mxPoint x="34" y="180" as="sourcePoint" />
            <mxPoint x="360" y="180" as="targetPoint" />
          </mxGeometry>
        </mxCell>
        <mxCell id="nq7OmTxhRkzKAlg708lr-4" value="" style="endArrow=none;html=1;" edge="1" parent="1">
          <mxGeometry width="50" height="50" relative="1" as="geometry">
            <mxPoint x="34" y="200" as="sourcePoint" />
            <mxPoint x="34" y="160" as="targetPoint" />
            <Array as="points">
              <mxPoint x="34" y="180" />
            </Array>
          </mxGeometry>
        </mxCell>
        <mxCell id="nq7OmTxhRkzKAlg708lr-5" value="P1,P2,P3,P4&lt;br&gt;" style="text;html=1;strokeColor=none;fillColor=none;align=center;verticalAlign=middle;whiteSpace=wrap;" vertex="1" parent="1">
          <mxGeometry x="4" y="200" width="40" height="20" as="geometry" />
        </mxCell>
        <mxCell id="nq7OmTxhRkzKAlg708lr-152" value="0&lt;br&gt;" style="text;html=1;strokeColor=none;fillColor=none;align=center;verticalAlign=middle;whiteSpace=wrap;" vertex="1" parent="1">
          <mxGeometry x="10" y="140" width="40" height="20" as="geometry" />
        </mxCell>
        <mxCell id="nq7OmTxhRkzKAlg708lr-155" value="" style="endArrow=none;html=1;" edge="1" parent="1">
          <mxGeometry width="50" height="50" relative="1" as="geometry">
            <mxPoint x="104" y="210" as="sourcePoint" />
            <mxPoint x="104" y="160" as="targetPoint" />
          </mxGeometry>
        </mxCell>
        <mxCell id="nq7OmTxhRkzKAlg708lr-156" value="3&lt;br&gt;" style="text;html=1;strokeColor=none;fillColor=none;align=center;verticalAlign=middle;whiteSpace=wrap;" vertex="1" parent="1">
          <mxGeometry x="84" y="140" width="40" height="20" as="geometry" />
        </mxCell>
        <mxCell id="nq7OmTxhRkzKAlg708lr-157" value="24" style="text;html=1;strokeColor=none;fillColor=none;align=center;verticalAlign=middle;whiteSpace=wrap;" vertex="1" parent="1">
          <mxGeometry x="340" y="140" width="40" height="20" as="geometry" />
        </mxCell>
        <mxCell id="nq7OmTxhRkzKAlg708lr-159" value="P4,p1,p2&lt;br&gt;" style="text;html=1;strokeColor=none;fillColor=none;align=center;verticalAlign=middle;whiteSpace=wrap;" vertex="1" parent="1">
          <mxGeometry x="84" y="220" width="40" height="20" as="geometry" />
        </mxCell>
        <mxCell id="nq7OmTxhRkzKAlg708lr-162" value="" style="endArrow=none;html=1;" edge="1" parent="1">
          <mxGeometry width="50" height="50" relative="1" as="geometry">
            <mxPoint x="194" y="210" as="sourcePoint" />
            <mxPoint x="194" y="160" as="targetPoint" />
          </mxGeometry>
        </mxCell>
        <mxCell id="nq7OmTxhRkzKAlg708lr-163" value="9&lt;br&gt;" style="text;html=1;strokeColor=none;fillColor=none;align=center;verticalAlign=middle;whiteSpace=wrap;" vertex="1" parent="1">
          <mxGeometry x="174" y="140" width="40" height="20" as="geometry" />
        </mxCell>
        <mxCell id="nq7OmTxhRkzKAlg708lr-164" value="p1,p2,p3&lt;br&gt;" style="text;html=1;strokeColor=none;fillColor=none;align=center;verticalAlign=middle;whiteSpace=wrap;" vertex="1" parent="1">
          <mxGeometry x="174" y="220" width="40" height="20" as="geometry" />
        </mxCell>
        <mxCell id="nq7OmTxhRkzKAlg708lr-165" value="" style="endArrow=none;html=1;" edge="1" parent="1">
          <mxGeometry width="50" height="50" relative="1" as="geometry">
            <mxPoint x="360" y="210" as="sourcePoint" />
            <mxPoint x="360" y="160" as="targetPoint" />
          </mxGeometry>
        </mxCell>
        <mxCell id="nq7OmTxhRkzKAlg708lr-167" value="" style="endArrow=none;html=1;" edge="1" parent="1">
          <mxGeometry width="50" height="50" relative="1" as="geometry">
            <mxPoint x="270" y="210" as="sourcePoint" />
            <mxPoint x="270" y="160" as="targetPoint" />
          </mxGeometry>
        </mxCell>
        <mxCell id="nq7OmTxhRkzKAlg708lr-168" value="Text" style="text;html=1;strokeColor=none;fillColor=none;align=center;verticalAlign=middle;whiteSpace=wrap;" vertex="1" parent="1">
          <mxGeometry x="400" y="180" width="40" height="20" as="geometry" />
        </mxCell>
        <mxCell id="nq7OmTxhRkzKAlg708lr-169" value="16" style="text;html=1;strokeColor=none;fillColor=none;align=center;verticalAlign=middle;whiteSpace=wrap;" vertex="1" parent="1">
          <mxGeometry x="250" y="140" width="40" height="20" as="geometry" />
        </mxCell>
        <mxCell id="nq7OmTxhRkzKAlg708lr-170" value="p2,p3" style="text;html=1;strokeColor=none;fillColor=none;align=center;verticalAlign=middle;whiteSpace=wrap;" vertex="1" parent="1">
          <mxGeometry x="250" y="220" width="40" height="20" as="geometry" />
        </mxCell>
        <mxCell id="nq7OmTxhRkzKAlg708lr-171" value="Text" style="text;html=1;strokeColor=none;fillColor=none;align=center;verticalAlign=middle;whiteSpace=wrap;" vertex="1" parent="1">
          <mxGeometry x="400" y="180" width="40" height="20" as="geometry" />
        </mxCell>
        <mxCell id="nq7OmTxhRkzKAlg708lr-172" value="görev biti" style="text;html=1;strokeColor=none;fillColor=none;align=center;verticalAlign=middle;whiteSpace=wrap;" vertex="1" parent="1">
          <mxGeometry x="340" y="210" width="40" height="20" as="geometry" />
        </mxCell>
        <mxCell id="nq7OmTxhRkzKAlg708lr-176" value="p4" style="text;html=1;strokeColor=none;fillColor=none;align=center;verticalAlign=middle;whiteSpace=wrap;" vertex="1" parent="1">
          <mxGeometry x="44" y="160" width="40" height="20" as="geometry" />
        </mxCell>
        <mxCell id="nq7OmTxhRkzKAlg708lr-178" value="p1" style="text;html=1;strokeColor=none;fillColor=none;align=center;verticalAlign=middle;whiteSpace=wrap;" vertex="1" parent="1">
          <mxGeometry x="124" y="160" width="40" height="20" as="geometry" />
        </mxCell>
        <mxCell id="nq7OmTxhRkzKAlg708lr-179" value="p2" style="text;html=1;strokeColor=none;fillColor=none;align=center;verticalAlign=middle;whiteSpace=wrap;" vertex="1" parent="1">
          <mxGeometry x="210" y="160" width="40" height="20" as="geometry" />
        </mxCell>
        <mxCell id="nq7OmTxhRkzKAlg708lr-180" value="p3" style="text;html=1;strokeColor=none;fillColor=none;align=center;verticalAlign=middle;whiteSpace=wrap;" vertex="1" parent="1">
          <mxGeometry x="290" y="160" width="46" height="20" as="geometry" />
        </mxCell>
        <mxCell id="nq7OmTxhRkzKAlg708lr-219" value="" style="shape=table;html=1;whiteSpace=wrap;startSize=0;container=1;collapsible=0;childLayout=tableLayout;" vertex="1" parent="1">
          <mxGeometry x="527" y="27" width="300" height="370" as="geometry" />
        </mxCell>
        <mxCell id="nq7OmTxhRkzKAlg708lr-220" value="" style="shape=partialRectangle;html=1;whiteSpace=wrap;collapsible=0;dropTarget=0;pointerEvents=0;fillColor=none;top=0;left=0;bottom=0;right=0;points=[[0,0.5],[1,0.5]];portConstraint=eastwest;" vertex="1" parent="nq7OmTxhRkzKAlg708lr-219">
          <mxGeometry width="300" height="20" as="geometry" />
        </mxCell>
        <mxCell id="nq7OmTxhRkzKAlg708lr-221" value="WT" style="shape=partialRectangle;html=1;whiteSpace=wrap;connectable=0;overflow=hidden;fillColor=none;top=0;left=0;bottom=0;right=0;" vertex="1" parent="nq7OmTxhRkzKAlg708lr-220">
          <mxGeometry width="60" height="20" as="geometry" />
        </mxCell>
        <mxCell id="nq7OmTxhRkzKAlg708lr-222" value="p1" style="shape=partialRectangle;html=1;whiteSpace=wrap;connectable=0;overflow=hidden;fillColor=none;top=0;left=0;bottom=0;right=0;" vertex="1" parent="nq7OmTxhRkzKAlg708lr-220">
          <mxGeometry x="60" width="60" height="20" as="geometry" />
        </mxCell>
        <mxCell id="nq7OmTxhRkzKAlg708lr-223" value="p2" style="shape=partialRectangle;html=1;whiteSpace=wrap;connectable=0;overflow=hidden;fillColor=none;top=0;left=0;bottom=0;right=0;" vertex="1" parent="nq7OmTxhRkzKAlg708lr-220">
          <mxGeometry x="120" width="60" height="20" as="geometry" />
        </mxCell>
        <mxCell id="nq7OmTxhRkzKAlg708lr-224" value="p3" style="shape=partialRectangle;html=1;whiteSpace=wrap;connectable=0;overflow=hidden;fillColor=none;top=0;left=0;bottom=0;right=0;" vertex="1" parent="nq7OmTxhRkzKAlg708lr-220">
          <mxGeometry x="180" width="60" height="20" as="geometry" />
        </mxCell>
        <mxCell id="nq7OmTxhRkzKAlg708lr-225" value="p4" style="shape=partialRectangle;html=1;whiteSpace=wrap;connectable=0;overflow=hidden;fillColor=none;top=0;left=0;bottom=0;right=0;" vertex="1" parent="nq7OmTxhRkzKAlg708lr-220">
          <mxGeometry x="240" width="60" height="20" as="geometry" />
        </mxCell>
        <mxCell id="nq7OmTxhRkzKAlg708lr-226" value="" style="shape=partialRectangle;html=1;whiteSpace=wrap;collapsible=0;dropTarget=0;pointerEvents=0;fillColor=none;top=0;left=0;bottom=0;right=0;points=[[0,0.5],[1,0.5]];portConstraint=eastwest;" vertex="1" parent="nq7OmTxhRkzKAlg708lr-219">
          <mxGeometry y="20" width="300" height="20" as="geometry" />
        </mxCell>
        <mxCell id="nq7OmTxhRkzKAlg708lr-227" value="1" style="shape=partialRectangle;html=1;whiteSpace=wrap;connectable=0;overflow=hidden;fillColor=none;top=0;left=0;bottom=0;right=0;" vertex="1" parent="nq7OmTxhRkzKAlg708lr-226">
          <mxGeometry width="60" height="20" as="geometry" />
        </mxCell>
        <mxCell id="nq7OmTxhRkzKAlg708lr-228" value=",0" style="shape=partialRectangle;html=1;whiteSpace=wrap;connectable=0;overflow=hidden;fillColor=none;top=0;left=0;bottom=0;right=0;" vertex="1" parent="nq7OmTxhRkzKAlg708lr-226">
          <mxGeometry x="60" width="60" height="20" as="geometry" />
        </mxCell>
        <mxCell id="nq7OmTxhRkzKAlg708lr-229" value="0" style="shape=partialRectangle;html=1;whiteSpace=wrap;connectable=0;overflow=hidden;fillColor=none;top=0;left=0;bottom=0;right=0;" vertex="1" parent="nq7OmTxhRkzKAlg708lr-226">
          <mxGeometry x="120" width="60" height="20" as="geometry" />
        </mxCell>
        <mxCell id="nq7OmTxhRkzKAlg708lr-230" value="0" style="shape=partialRectangle;html=1;whiteSpace=wrap;connectable=0;overflow=hidden;fillColor=none;top=0;left=0;bottom=0;right=0;" vertex="1" parent="nq7OmTxhRkzKAlg708lr-226">
          <mxGeometry x="180" width="60" height="20" as="geometry" />
        </mxCell>
        <mxCell id="nq7OmTxhRkzKAlg708lr-231" value="1" style="shape=partialRectangle;html=1;whiteSpace=wrap;connectable=0;overflow=hidden;fillColor=none;top=0;left=0;bottom=0;right=0;" vertex="1" parent="nq7OmTxhRkzKAlg708lr-226">
          <mxGeometry x="240" width="60" height="20" as="geometry" />
        </mxCell>
        <mxCell id="nq7OmTxhRkzKAlg708lr-232" value="" style="shape=partialRectangle;html=1;whiteSpace=wrap;collapsible=0;dropTarget=0;pointerEvents=0;fillColor=none;top=0;left=0;bottom=0;right=0;points=[[0,0.5],[1,0.5]];portConstraint=eastwest;" vertex="1" parent="nq7OmTxhRkzKAlg708lr-219">
          <mxGeometry y="40" width="300" height="20" as="geometry" />
        </mxCell>
        <mxCell id="nq7OmTxhRkzKAlg708lr-233" value="2" style="shape=partialRectangle;html=1;whiteSpace=wrap;connectable=0;overflow=hidden;fillColor=none;top=0;left=0;bottom=0;right=0;" vertex="1" parent="nq7OmTxhRkzKAlg708lr-232">
          <mxGeometry width="60" height="20" as="geometry" />
        </mxCell>
        <mxCell id="nq7OmTxhRkzKAlg708lr-234" value="0" style="shape=partialRectangle;html=1;whiteSpace=wrap;connectable=0;overflow=hidden;fillColor=none;top=0;left=0;bottom=0;right=0;" vertex="1" parent="nq7OmTxhRkzKAlg708lr-232">
          <mxGeometry x="60" width="60" height="20" as="geometry" />
        </mxCell>
        <mxCell id="nq7OmTxhRkzKAlg708lr-235" value="0" style="shape=partialRectangle;html=1;whiteSpace=wrap;connectable=0;overflow=hidden;fillColor=none;top=0;left=0;bottom=0;right=0;" vertex="1" parent="nq7OmTxhRkzKAlg708lr-232">
          <mxGeometry x="120" width="60" height="20" as="geometry" />
        </mxCell>
        <mxCell id="nq7OmTxhRkzKAlg708lr-236" value="0" style="shape=partialRectangle;html=1;whiteSpace=wrap;connectable=0;overflow=hidden;fillColor=none;top=0;left=0;bottom=0;right=0;" vertex="1" parent="nq7OmTxhRkzKAlg708lr-232">
          <mxGeometry x="180" width="60" height="20" as="geometry" />
        </mxCell>
        <mxCell id="nq7OmTxhRkzKAlg708lr-237" value="2" style="shape=partialRectangle;html=1;whiteSpace=wrap;connectable=0;overflow=hidden;fillColor=none;top=0;left=0;bottom=0;right=0;" vertex="1" parent="nq7OmTxhRkzKAlg708lr-232">
          <mxGeometry x="240" width="60" height="20" as="geometry" />
        </mxCell>
        <mxCell id="nq7OmTxhRkzKAlg708lr-238" value="" style="shape=partialRectangle;html=1;whiteSpace=wrap;collapsible=0;dropTarget=0;pointerEvents=0;fillColor=none;top=0;left=0;bottom=0;right=0;points=[[0,0.5],[1,0.5]];portConstraint=eastwest;" vertex="1" parent="nq7OmTxhRkzKAlg708lr-219">
          <mxGeometry y="60" width="300" height="18" as="geometry" />
        </mxCell>
        <mxCell id="nq7OmTxhRkzKAlg708lr-239" value="3" style="shape=partialRectangle;html=1;whiteSpace=wrap;connectable=0;overflow=hidden;fillColor=none;top=0;left=0;bottom=0;right=0;" vertex="1" parent="nq7OmTxhRkzKAlg708lr-238">
          <mxGeometry width="60" height="18" as="geometry" />
        </mxCell>
        <mxCell id="nq7OmTxhRkzKAlg708lr-240" value="0" style="shape=partialRectangle;html=1;whiteSpace=wrap;connectable=0;overflow=hidden;fillColor=none;top=0;left=0;bottom=0;right=0;" vertex="1" parent="nq7OmTxhRkzKAlg708lr-238">
          <mxGeometry x="60" width="60" height="18" as="geometry" />
        </mxCell>
        <mxCell id="nq7OmTxhRkzKAlg708lr-241" value="0" style="shape=partialRectangle;html=1;whiteSpace=wrap;connectable=0;overflow=hidden;fillColor=none;top=0;left=0;bottom=0;right=0;" vertex="1" parent="nq7OmTxhRkzKAlg708lr-238">
          <mxGeometry x="120" width="60" height="18" as="geometry" />
        </mxCell>
        <mxCell id="nq7OmTxhRkzKAlg708lr-242" value="0" style="shape=partialRectangle;html=1;whiteSpace=wrap;connectable=0;overflow=hidden;fillColor=none;top=0;left=0;bottom=0;right=0;" vertex="1" parent="nq7OmTxhRkzKAlg708lr-238">
          <mxGeometry x="180" width="60" height="18" as="geometry" />
        </mxCell>
        <mxCell id="nq7OmTxhRkzKAlg708lr-243" value="3" style="shape=partialRectangle;html=1;whiteSpace=wrap;connectable=0;overflow=hidden;fillColor=none;top=0;left=0;bottom=0;right=0;" vertex="1" parent="nq7OmTxhRkzKAlg708lr-238">
          <mxGeometry x="240" width="60" height="18" as="geometry" />
        </mxCell>
        <mxCell id="nq7OmTxhRkzKAlg708lr-244" value="" style="shape=partialRectangle;html=1;whiteSpace=wrap;collapsible=0;dropTarget=0;pointerEvents=0;fillColor=none;top=0;left=0;bottom=0;right=0;points=[[0,0.5],[1,0.5]];portConstraint=eastwest;" vertex="1" parent="nq7OmTxhRkzKAlg708lr-219">
          <mxGeometry y="78" width="300" height="18" as="geometry" />
        </mxCell>
        <mxCell id="nq7OmTxhRkzKAlg708lr-245" value="4" style="shape=partialRectangle;html=1;whiteSpace=wrap;connectable=0;overflow=hidden;fillColor=none;top=0;left=0;bottom=0;right=0;" vertex="1" parent="nq7OmTxhRkzKAlg708lr-244">
          <mxGeometry width="60" height="18" as="geometry" />
        </mxCell>
        <mxCell id="nq7OmTxhRkzKAlg708lr-246" value="1" style="shape=partialRectangle;html=1;whiteSpace=wrap;connectable=0;overflow=hidden;fillColor=none;top=0;left=0;bottom=0;right=0;" vertex="1" parent="nq7OmTxhRkzKAlg708lr-244">
          <mxGeometry x="60" width="60" height="18" as="geometry" />
        </mxCell>
        <mxCell id="nq7OmTxhRkzKAlg708lr-247" value="0" style="shape=partialRectangle;html=1;whiteSpace=wrap;connectable=0;overflow=hidden;fillColor=none;top=0;left=0;bottom=0;right=0;" vertex="1" parent="nq7OmTxhRkzKAlg708lr-244">
          <mxGeometry x="120" width="60" height="18" as="geometry" />
        </mxCell>
        <mxCell id="nq7OmTxhRkzKAlg708lr-248" value="0" style="shape=partialRectangle;html=1;whiteSpace=wrap;connectable=0;overflow=hidden;fillColor=none;top=0;left=0;bottom=0;right=0;" vertex="1" parent="nq7OmTxhRkzKAlg708lr-244">
          <mxGeometry x="180" width="60" height="18" as="geometry" />
        </mxCell>
        <mxCell id="nq7OmTxhRkzKAlg708lr-249" value="" style="shape=partialRectangle;html=1;whiteSpace=wrap;connectable=0;overflow=hidden;fillColor=none;top=0;left=0;bottom=0;right=0;" vertex="1" parent="nq7OmTxhRkzKAlg708lr-244">
          <mxGeometry x="240" width="60" height="18" as="geometry" />
        </mxCell>
        <mxCell id="nq7OmTxhRkzKAlg708lr-250" value="" style="shape=partialRectangle;html=1;whiteSpace=wrap;collapsible=0;dropTarget=0;pointerEvents=0;fillColor=none;top=0;left=0;bottom=0;right=0;points=[[0,0.5],[1,0.5]];portConstraint=eastwest;" vertex="1" parent="nq7OmTxhRkzKAlg708lr-219">
          <mxGeometry y="96" width="300" height="18" as="geometry" />
        </mxCell>
        <mxCell id="nq7OmTxhRkzKAlg708lr-251" value="5" style="shape=partialRectangle;html=1;whiteSpace=wrap;connectable=0;overflow=hidden;fillColor=none;top=0;left=0;bottom=0;right=0;" vertex="1" parent="nq7OmTxhRkzKAlg708lr-250">
          <mxGeometry width="60" height="18" as="geometry" />
        </mxCell>
        <mxCell id="nq7OmTxhRkzKAlg708lr-252" value="2" style="shape=partialRectangle;html=1;whiteSpace=wrap;connectable=0;overflow=hidden;fillColor=none;top=0;left=0;bottom=0;right=0;" vertex="1" parent="nq7OmTxhRkzKAlg708lr-250">
          <mxGeometry x="60" width="60" height="18" as="geometry" />
        </mxCell>
        <mxCell id="nq7OmTxhRkzKAlg708lr-253" value="0" style="shape=partialRectangle;html=1;whiteSpace=wrap;connectable=0;overflow=hidden;fillColor=none;top=0;left=0;bottom=0;right=0;" vertex="1" parent="nq7OmTxhRkzKAlg708lr-250">
          <mxGeometry x="120" width="60" height="18" as="geometry" />
        </mxCell>
        <mxCell id="nq7OmTxhRkzKAlg708lr-254" value="0" style="shape=partialRectangle;html=1;whiteSpace=wrap;connectable=0;overflow=hidden;fillColor=none;top=0;left=0;bottom=0;right=0;" vertex="1" parent="nq7OmTxhRkzKAlg708lr-250">
          <mxGeometry x="180" width="60" height="18" as="geometry" />
        </mxCell>
        <mxCell id="nq7OmTxhRkzKAlg708lr-255" value="" style="shape=partialRectangle;html=1;whiteSpace=wrap;connectable=0;overflow=hidden;fillColor=none;top=0;left=0;bottom=0;right=0;" vertex="1" parent="nq7OmTxhRkzKAlg708lr-250">
          <mxGeometry x="240" width="60" height="18" as="geometry" />
        </mxCell>
        <mxCell id="nq7OmTxhRkzKAlg708lr-256" value="" style="shape=partialRectangle;html=1;whiteSpace=wrap;collapsible=0;dropTarget=0;pointerEvents=0;fillColor=none;top=0;left=0;bottom=0;right=0;points=[[0,0.5],[1,0.5]];portConstraint=eastwest;" vertex="1" parent="nq7OmTxhRkzKAlg708lr-219">
          <mxGeometry y="114" width="300" height="18" as="geometry" />
        </mxCell>
        <mxCell id="nq7OmTxhRkzKAlg708lr-257" value="6" style="shape=partialRectangle;html=1;whiteSpace=wrap;connectable=0;overflow=hidden;fillColor=none;top=0;left=0;bottom=0;right=0;" vertex="1" parent="nq7OmTxhRkzKAlg708lr-256">
          <mxGeometry width="60" height="18" as="geometry" />
        </mxCell>
        <mxCell id="nq7OmTxhRkzKAlg708lr-258" value="3" style="shape=partialRectangle;html=1;whiteSpace=wrap;connectable=0;overflow=hidden;fillColor=none;top=0;left=0;bottom=0;right=0;" vertex="1" parent="nq7OmTxhRkzKAlg708lr-256">
          <mxGeometry x="60" width="60" height="18" as="geometry" />
        </mxCell>
        <mxCell id="nq7OmTxhRkzKAlg708lr-259" value="0" style="shape=partialRectangle;html=1;whiteSpace=wrap;connectable=0;overflow=hidden;fillColor=none;top=0;left=0;bottom=0;right=0;" vertex="1" parent="nq7OmTxhRkzKAlg708lr-256">
          <mxGeometry x="120" width="60" height="18" as="geometry" />
        </mxCell>
        <mxCell id="nq7OmTxhRkzKAlg708lr-260" value="0" style="shape=partialRectangle;html=1;whiteSpace=wrap;connectable=0;overflow=hidden;fillColor=none;top=0;left=0;bottom=0;right=0;" vertex="1" parent="nq7OmTxhRkzKAlg708lr-256">
          <mxGeometry x="180" width="60" height="18" as="geometry" />
        </mxCell>
        <mxCell id="nq7OmTxhRkzKAlg708lr-261" value="" style="shape=partialRectangle;html=1;whiteSpace=wrap;connectable=0;overflow=hidden;fillColor=none;top=0;left=0;bottom=0;right=0;" vertex="1" parent="nq7OmTxhRkzKAlg708lr-256">
          <mxGeometry x="240" width="60" height="18" as="geometry" />
        </mxCell>
        <mxCell id="nq7OmTxhRkzKAlg708lr-262" value="" style="shape=partialRectangle;html=1;whiteSpace=wrap;collapsible=0;dropTarget=0;pointerEvents=0;fillColor=none;top=0;left=0;bottom=0;right=0;points=[[0,0.5],[1,0.5]];portConstraint=eastwest;" vertex="1" parent="nq7OmTxhRkzKAlg708lr-219">
          <mxGeometry y="132" width="300" height="18" as="geometry" />
        </mxCell>
        <mxCell id="nq7OmTxhRkzKAlg708lr-263" value="7" style="shape=partialRectangle;html=1;whiteSpace=wrap;connectable=0;overflow=hidden;fillColor=none;top=0;left=0;bottom=0;right=0;" vertex="1" parent="nq7OmTxhRkzKAlg708lr-262">
          <mxGeometry width="60" height="18" as="geometry" />
        </mxCell>
        <mxCell id="nq7OmTxhRkzKAlg708lr-264" value="4" style="shape=partialRectangle;html=1;whiteSpace=wrap;connectable=0;overflow=hidden;fillColor=none;top=0;left=0;bottom=0;right=0;" vertex="1" parent="nq7OmTxhRkzKAlg708lr-262">
          <mxGeometry x="60" width="60" height="18" as="geometry" />
        </mxCell>
        <mxCell id="nq7OmTxhRkzKAlg708lr-265" value="0" style="shape=partialRectangle;html=1;whiteSpace=wrap;connectable=0;overflow=hidden;fillColor=none;top=0;left=0;bottom=0;right=0;" vertex="1" parent="nq7OmTxhRkzKAlg708lr-262">
          <mxGeometry x="120" width="60" height="18" as="geometry" />
        </mxCell>
        <mxCell id="nq7OmTxhRkzKAlg708lr-266" value="0" style="shape=partialRectangle;html=1;whiteSpace=wrap;connectable=0;overflow=hidden;fillColor=none;top=0;left=0;bottom=0;right=0;" vertex="1" parent="nq7OmTxhRkzKAlg708lr-262">
          <mxGeometry x="180" width="60" height="18" as="geometry" />
        </mxCell>
        <mxCell id="nq7OmTxhRkzKAlg708lr-267" value="" style="shape=partialRectangle;html=1;whiteSpace=wrap;connectable=0;overflow=hidden;fillColor=none;top=0;left=0;bottom=0;right=0;" vertex="1" parent="nq7OmTxhRkzKAlg708lr-262">
          <mxGeometry x="240" width="60" height="18" as="geometry" />
        </mxCell>
        <mxCell id="nq7OmTxhRkzKAlg708lr-268" value="" style="shape=partialRectangle;html=1;whiteSpace=wrap;collapsible=0;dropTarget=0;pointerEvents=0;fillColor=none;top=0;left=0;bottom=0;right=0;points=[[0,0.5],[1,0.5]];portConstraint=eastwest;" vertex="1" parent="nq7OmTxhRkzKAlg708lr-219">
          <mxGeometry y="150" width="300" height="18" as="geometry" />
        </mxCell>
        <mxCell id="nq7OmTxhRkzKAlg708lr-269" value="8" style="shape=partialRectangle;html=1;whiteSpace=wrap;connectable=0;overflow=hidden;fillColor=none;top=0;left=0;bottom=0;right=0;" vertex="1" parent="nq7OmTxhRkzKAlg708lr-268">
          <mxGeometry width="60" height="18" as="geometry" />
        </mxCell>
        <mxCell id="nq7OmTxhRkzKAlg708lr-270" value="5" style="shape=partialRectangle;html=1;whiteSpace=wrap;connectable=0;overflow=hidden;fillColor=none;top=0;left=0;bottom=0;right=0;" vertex="1" parent="nq7OmTxhRkzKAlg708lr-268">
          <mxGeometry x="60" width="60" height="18" as="geometry" />
        </mxCell>
        <mxCell id="nq7OmTxhRkzKAlg708lr-271" value="0" style="shape=partialRectangle;html=1;whiteSpace=wrap;connectable=0;overflow=hidden;fillColor=none;top=0;left=0;bottom=0;right=0;" vertex="1" parent="nq7OmTxhRkzKAlg708lr-268">
          <mxGeometry x="120" width="60" height="18" as="geometry" />
        </mxCell>
        <mxCell id="nq7OmTxhRkzKAlg708lr-272" value="0" style="shape=partialRectangle;html=1;whiteSpace=wrap;connectable=0;overflow=hidden;fillColor=none;top=0;left=0;bottom=0;right=0;" vertex="1" parent="nq7OmTxhRkzKAlg708lr-268">
          <mxGeometry x="180" width="60" height="18" as="geometry" />
        </mxCell>
        <mxCell id="nq7OmTxhRkzKAlg708lr-273" value="" style="shape=partialRectangle;html=1;whiteSpace=wrap;connectable=0;overflow=hidden;fillColor=none;top=0;left=0;bottom=0;right=0;" vertex="1" parent="nq7OmTxhRkzKAlg708lr-268">
          <mxGeometry x="240" width="60" height="18" as="geometry" />
        </mxCell>
        <mxCell id="nq7OmTxhRkzKAlg708lr-274" value="" style="shape=partialRectangle;html=1;whiteSpace=wrap;collapsible=0;dropTarget=0;pointerEvents=0;fillColor=none;top=0;left=0;bottom=0;right=0;points=[[0,0.5],[1,0.5]];portConstraint=eastwest;" vertex="1" parent="nq7OmTxhRkzKAlg708lr-219">
          <mxGeometry y="168" width="300" height="18" as="geometry" />
        </mxCell>
        <mxCell id="nq7OmTxhRkzKAlg708lr-275" value="9" style="shape=partialRectangle;html=1;whiteSpace=wrap;connectable=0;overflow=hidden;fillColor=none;top=0;left=0;bottom=0;right=0;" vertex="1" parent="nq7OmTxhRkzKAlg708lr-274">
          <mxGeometry width="60" height="18" as="geometry" />
        </mxCell>
        <mxCell id="nq7OmTxhRkzKAlg708lr-276" value="6" style="shape=partialRectangle;html=1;whiteSpace=wrap;connectable=0;overflow=hidden;fillColor=none;top=0;left=0;bottom=0;right=0;" vertex="1" parent="nq7OmTxhRkzKAlg708lr-274">
          <mxGeometry x="60" width="60" height="18" as="geometry" />
        </mxCell>
        <mxCell id="nq7OmTxhRkzKAlg708lr-277" value="0" style="shape=partialRectangle;html=1;whiteSpace=wrap;connectable=0;overflow=hidden;fillColor=none;top=0;left=0;bottom=0;right=0;" vertex="1" parent="nq7OmTxhRkzKAlg708lr-274">
          <mxGeometry x="120" width="60" height="18" as="geometry" />
        </mxCell>
        <mxCell id="nq7OmTxhRkzKAlg708lr-278" value="0" style="shape=partialRectangle;html=1;whiteSpace=wrap;connectable=0;overflow=hidden;fillColor=none;top=0;left=0;bottom=0;right=0;" vertex="1" parent="nq7OmTxhRkzKAlg708lr-274">
          <mxGeometry x="180" width="60" height="18" as="geometry" />
        </mxCell>
        <mxCell id="nq7OmTxhRkzKAlg708lr-279" value="" style="shape=partialRectangle;html=1;whiteSpace=wrap;connectable=0;overflow=hidden;fillColor=none;top=0;left=0;bottom=0;right=0;" vertex="1" parent="nq7OmTxhRkzKAlg708lr-274">
          <mxGeometry x="240" width="60" height="18" as="geometry" />
        </mxCell>
        <mxCell id="nq7OmTxhRkzKAlg708lr-280" value="" style="shape=partialRectangle;html=1;whiteSpace=wrap;collapsible=0;dropTarget=0;pointerEvents=0;fillColor=none;top=0;left=0;bottom=0;right=0;points=[[0,0.5],[1,0.5]];portConstraint=eastwest;" vertex="1" parent="nq7OmTxhRkzKAlg708lr-219">
          <mxGeometry y="186" width="300" height="18" as="geometry" />
        </mxCell>
        <mxCell id="nq7OmTxhRkzKAlg708lr-281" value="10" style="shape=partialRectangle;html=1;whiteSpace=wrap;connectable=0;overflow=hidden;fillColor=none;top=0;left=0;bottom=0;right=0;" vertex="1" parent="nq7OmTxhRkzKAlg708lr-280">
          <mxGeometry width="60" height="18" as="geometry" />
        </mxCell>
        <mxCell id="nq7OmTxhRkzKAlg708lr-282" value="" style="shape=partialRectangle;html=1;whiteSpace=wrap;connectable=0;overflow=hidden;fillColor=none;top=0;left=0;bottom=0;right=0;" vertex="1" parent="nq7OmTxhRkzKAlg708lr-280">
          <mxGeometry x="60" width="60" height="18" as="geometry" />
        </mxCell>
        <mxCell id="nq7OmTxhRkzKAlg708lr-283" value="1" style="shape=partialRectangle;html=1;whiteSpace=wrap;connectable=0;overflow=hidden;fillColor=none;top=0;left=0;bottom=0;right=0;" vertex="1" parent="nq7OmTxhRkzKAlg708lr-280">
          <mxGeometry x="120" width="60" height="18" as="geometry" />
        </mxCell>
        <mxCell id="nq7OmTxhRkzKAlg708lr-284" value="0" style="shape=partialRectangle;html=1;whiteSpace=wrap;connectable=0;overflow=hidden;fillColor=none;top=0;left=0;bottom=0;right=0;" vertex="1" parent="nq7OmTxhRkzKAlg708lr-280">
          <mxGeometry x="180" width="60" height="18" as="geometry" />
        </mxCell>
        <mxCell id="nq7OmTxhRkzKAlg708lr-285" value="" style="shape=partialRectangle;html=1;whiteSpace=wrap;connectable=0;overflow=hidden;fillColor=none;top=0;left=0;bottom=0;right=0;" vertex="1" parent="nq7OmTxhRkzKAlg708lr-280">
          <mxGeometry x="240" width="60" height="18" as="geometry" />
        </mxCell>
        <mxCell id="nq7OmTxhRkzKAlg708lr-286" value="" style="shape=partialRectangle;html=1;whiteSpace=wrap;collapsible=0;dropTarget=0;pointerEvents=0;fillColor=none;top=0;left=0;bottom=0;right=0;points=[[0,0.5],[1,0.5]];portConstraint=eastwest;" vertex="1" parent="nq7OmTxhRkzKAlg708lr-219">
          <mxGeometry y="204" width="300" height="18" as="geometry" />
        </mxCell>
        <mxCell id="nq7OmTxhRkzKAlg708lr-287" value="11" style="shape=partialRectangle;html=1;whiteSpace=wrap;connectable=0;overflow=hidden;fillColor=none;top=0;left=0;bottom=0;right=0;" vertex="1" parent="nq7OmTxhRkzKAlg708lr-286">
          <mxGeometry width="60" height="18" as="geometry" />
        </mxCell>
        <mxCell id="nq7OmTxhRkzKAlg708lr-288" value="" style="shape=partialRectangle;html=1;whiteSpace=wrap;connectable=0;overflow=hidden;fillColor=none;top=0;left=0;bottom=0;right=0;" vertex="1" parent="nq7OmTxhRkzKAlg708lr-286">
          <mxGeometry x="60" width="60" height="18" as="geometry" />
        </mxCell>
        <mxCell id="nq7OmTxhRkzKAlg708lr-289" value="2" style="shape=partialRectangle;html=1;whiteSpace=wrap;connectable=0;overflow=hidden;fillColor=none;top=0;left=0;bottom=0;right=0;" vertex="1" parent="nq7OmTxhRkzKAlg708lr-286">
          <mxGeometry x="120" width="60" height="18" as="geometry" />
        </mxCell>
        <mxCell id="nq7OmTxhRkzKAlg708lr-290" value="0" style="shape=partialRectangle;html=1;whiteSpace=wrap;connectable=0;overflow=hidden;fillColor=none;top=0;left=0;bottom=0;right=0;" vertex="1" parent="nq7OmTxhRkzKAlg708lr-286">
          <mxGeometry x="180" width="60" height="18" as="geometry" />
        </mxCell>
        <mxCell id="nq7OmTxhRkzKAlg708lr-291" value="" style="shape=partialRectangle;html=1;whiteSpace=wrap;connectable=0;overflow=hidden;fillColor=none;top=0;left=0;bottom=0;right=0;" vertex="1" parent="nq7OmTxhRkzKAlg708lr-286">
          <mxGeometry x="240" width="60" height="18" as="geometry" />
        </mxCell>
        <mxCell id="nq7OmTxhRkzKAlg708lr-292" value="" style="shape=partialRectangle;html=1;whiteSpace=wrap;collapsible=0;dropTarget=0;pointerEvents=0;fillColor=none;top=0;left=0;bottom=0;right=0;points=[[0,0.5],[1,0.5]];portConstraint=eastwest;" vertex="1" parent="nq7OmTxhRkzKAlg708lr-219">
          <mxGeometry y="222" width="300" height="18" as="geometry" />
        </mxCell>
        <mxCell id="nq7OmTxhRkzKAlg708lr-293" value="12" style="shape=partialRectangle;html=1;whiteSpace=wrap;connectable=0;overflow=hidden;fillColor=none;top=0;left=0;bottom=0;right=0;" vertex="1" parent="nq7OmTxhRkzKAlg708lr-292">
          <mxGeometry width="60" height="18" as="geometry" />
        </mxCell>
        <mxCell id="nq7OmTxhRkzKAlg708lr-294" value="" style="shape=partialRectangle;html=1;whiteSpace=wrap;connectable=0;overflow=hidden;fillColor=none;top=0;left=0;bottom=0;right=0;" vertex="1" parent="nq7OmTxhRkzKAlg708lr-292">
          <mxGeometry x="60" width="60" height="18" as="geometry" />
        </mxCell>
        <mxCell id="nq7OmTxhRkzKAlg708lr-295" value="3" style="shape=partialRectangle;html=1;whiteSpace=wrap;connectable=0;overflow=hidden;fillColor=none;top=0;left=0;bottom=0;right=0;" vertex="1" parent="nq7OmTxhRkzKAlg708lr-292">
          <mxGeometry x="120" width="60" height="18" as="geometry" />
        </mxCell>
        <mxCell id="nq7OmTxhRkzKAlg708lr-296" value="0" style="shape=partialRectangle;html=1;whiteSpace=wrap;connectable=0;overflow=hidden;fillColor=none;top=0;left=0;bottom=0;right=0;" vertex="1" parent="nq7OmTxhRkzKAlg708lr-292">
          <mxGeometry x="180" width="60" height="18" as="geometry" />
        </mxCell>
        <mxCell id="nq7OmTxhRkzKAlg708lr-297" value="" style="shape=partialRectangle;html=1;whiteSpace=wrap;connectable=0;overflow=hidden;fillColor=none;top=0;left=0;bottom=0;right=0;" vertex="1" parent="nq7OmTxhRkzKAlg708lr-292">
          <mxGeometry x="240" width="60" height="18" as="geometry" />
        </mxCell>
        <mxCell id="nq7OmTxhRkzKAlg708lr-298" value="" style="shape=partialRectangle;html=1;whiteSpace=wrap;collapsible=0;dropTarget=0;pointerEvents=0;fillColor=none;top=0;left=0;bottom=0;right=0;points=[[0,0.5],[1,0.5]];portConstraint=eastwest;" vertex="1" parent="nq7OmTxhRkzKAlg708lr-219">
          <mxGeometry y="240" width="300" height="18" as="geometry" />
        </mxCell>
        <mxCell id="nq7OmTxhRkzKAlg708lr-299" value="13" style="shape=partialRectangle;html=1;whiteSpace=wrap;connectable=0;overflow=hidden;fillColor=none;top=0;left=0;bottom=0;right=0;" vertex="1" parent="nq7OmTxhRkzKAlg708lr-298">
          <mxGeometry width="60" height="18" as="geometry" />
        </mxCell>
        <mxCell id="nq7OmTxhRkzKAlg708lr-300" value="" style="shape=partialRectangle;html=1;whiteSpace=wrap;connectable=0;overflow=hidden;fillColor=none;top=0;left=0;bottom=0;right=0;" vertex="1" parent="nq7OmTxhRkzKAlg708lr-298">
          <mxGeometry x="60" width="60" height="18" as="geometry" />
        </mxCell>
        <mxCell id="nq7OmTxhRkzKAlg708lr-301" value="4" style="shape=partialRectangle;html=1;whiteSpace=wrap;connectable=0;overflow=hidden;fillColor=none;top=0;left=0;bottom=0;right=0;" vertex="1" parent="nq7OmTxhRkzKAlg708lr-298">
          <mxGeometry x="120" width="60" height="18" as="geometry" />
        </mxCell>
        <mxCell id="nq7OmTxhRkzKAlg708lr-302" value="0" style="shape=partialRectangle;html=1;whiteSpace=wrap;connectable=0;overflow=hidden;fillColor=none;top=0;left=0;bottom=0;right=0;" vertex="1" parent="nq7OmTxhRkzKAlg708lr-298">
          <mxGeometry x="180" width="60" height="18" as="geometry" />
        </mxCell>
        <mxCell id="nq7OmTxhRkzKAlg708lr-303" value="" style="shape=partialRectangle;html=1;whiteSpace=wrap;connectable=0;overflow=hidden;fillColor=none;top=0;left=0;bottom=0;right=0;" vertex="1" parent="nq7OmTxhRkzKAlg708lr-298">
          <mxGeometry x="240" width="60" height="18" as="geometry" />
        </mxCell>
        <mxCell id="nq7OmTxhRkzKAlg708lr-304" value="" style="shape=partialRectangle;html=1;whiteSpace=wrap;collapsible=0;dropTarget=0;pointerEvents=0;fillColor=none;top=0;left=0;bottom=0;right=0;points=[[0,0.5],[1,0.5]];portConstraint=eastwest;" vertex="1" parent="nq7OmTxhRkzKAlg708lr-219">
          <mxGeometry y="258" width="300" height="18" as="geometry" />
        </mxCell>
        <mxCell id="nq7OmTxhRkzKAlg708lr-305" value="14" style="shape=partialRectangle;html=1;whiteSpace=wrap;connectable=0;overflow=hidden;fillColor=none;top=0;left=0;bottom=0;right=0;" vertex="1" parent="nq7OmTxhRkzKAlg708lr-304">
          <mxGeometry width="60" height="18" as="geometry" />
        </mxCell>
        <mxCell id="nq7OmTxhRkzKAlg708lr-306" value="" style="shape=partialRectangle;html=1;whiteSpace=wrap;connectable=0;overflow=hidden;fillColor=none;top=0;left=0;bottom=0;right=0;" vertex="1" parent="nq7OmTxhRkzKAlg708lr-304">
          <mxGeometry x="60" width="60" height="18" as="geometry" />
        </mxCell>
        <mxCell id="nq7OmTxhRkzKAlg708lr-307" value="5" style="shape=partialRectangle;html=1;whiteSpace=wrap;connectable=0;overflow=hidden;fillColor=none;top=0;left=0;bottom=0;right=0;" vertex="1" parent="nq7OmTxhRkzKAlg708lr-304">
          <mxGeometry x="120" width="60" height="18" as="geometry" />
        </mxCell>
        <mxCell id="nq7OmTxhRkzKAlg708lr-308" value="0" style="shape=partialRectangle;html=1;whiteSpace=wrap;connectable=0;overflow=hidden;fillColor=none;top=0;left=0;bottom=0;right=0;" vertex="1" parent="nq7OmTxhRkzKAlg708lr-304">
          <mxGeometry x="180" width="60" height="18" as="geometry" />
        </mxCell>
        <mxCell id="nq7OmTxhRkzKAlg708lr-309" value="" style="shape=partialRectangle;html=1;whiteSpace=wrap;connectable=0;overflow=hidden;fillColor=none;top=0;left=0;bottom=0;right=0;" vertex="1" parent="nq7OmTxhRkzKAlg708lr-304">
          <mxGeometry x="240" width="60" height="18" as="geometry" />
        </mxCell>
        <mxCell id="nq7OmTxhRkzKAlg708lr-310" value="" style="shape=partialRectangle;html=1;whiteSpace=wrap;collapsible=0;dropTarget=0;pointerEvents=0;fillColor=none;top=0;left=0;bottom=0;right=0;points=[[0,0.5],[1,0.5]];portConstraint=eastwest;" vertex="1" parent="nq7OmTxhRkzKAlg708lr-219">
          <mxGeometry y="276" width="300" height="18" as="geometry" />
        </mxCell>
        <mxCell id="nq7OmTxhRkzKAlg708lr-311" value="15" style="shape=partialRectangle;html=1;whiteSpace=wrap;connectable=0;overflow=hidden;fillColor=none;top=0;left=0;bottom=0;right=0;" vertex="1" parent="nq7OmTxhRkzKAlg708lr-310">
          <mxGeometry width="60" height="18" as="geometry" />
        </mxCell>
        <mxCell id="nq7OmTxhRkzKAlg708lr-312" value="" style="shape=partialRectangle;html=1;whiteSpace=wrap;connectable=0;overflow=hidden;fillColor=none;top=0;left=0;bottom=0;right=0;" vertex="1" parent="nq7OmTxhRkzKAlg708lr-310">
          <mxGeometry x="60" width="60" height="18" as="geometry" />
        </mxCell>
        <mxCell id="nq7OmTxhRkzKAlg708lr-313" value="6" style="shape=partialRectangle;html=1;whiteSpace=wrap;connectable=0;overflow=hidden;fillColor=none;top=0;left=0;bottom=0;right=0;" vertex="1" parent="nq7OmTxhRkzKAlg708lr-310">
          <mxGeometry x="120" width="60" height="18" as="geometry" />
        </mxCell>
        <mxCell id="nq7OmTxhRkzKAlg708lr-314" value="0" style="shape=partialRectangle;html=1;whiteSpace=wrap;connectable=0;overflow=hidden;fillColor=none;top=0;left=0;bottom=0;right=0;" vertex="1" parent="nq7OmTxhRkzKAlg708lr-310">
          <mxGeometry x="180" width="60" height="18" as="geometry" />
        </mxCell>
        <mxCell id="nq7OmTxhRkzKAlg708lr-315" value="" style="shape=partialRectangle;html=1;whiteSpace=wrap;connectable=0;overflow=hidden;fillColor=none;top=0;left=0;bottom=0;right=0;" vertex="1" parent="nq7OmTxhRkzKAlg708lr-310">
          <mxGeometry x="240" width="60" height="18" as="geometry" />
        </mxCell>
        <mxCell id="nq7OmTxhRkzKAlg708lr-316" value="" style="shape=partialRectangle;html=1;whiteSpace=wrap;collapsible=0;dropTarget=0;pointerEvents=0;fillColor=none;top=0;left=0;bottom=0;right=0;points=[[0,0.5],[1,0.5]];portConstraint=eastwest;" vertex="1" parent="nq7OmTxhRkzKAlg708lr-219">
          <mxGeometry y="294" width="300" height="22" as="geometry" />
        </mxCell>
        <mxCell id="nq7OmTxhRkzKAlg708lr-317" value="16" style="shape=partialRectangle;html=1;whiteSpace=wrap;connectable=0;overflow=hidden;fillColor=none;top=0;left=0;bottom=0;right=0;" vertex="1" parent="nq7OmTxhRkzKAlg708lr-316">
          <mxGeometry width="60" height="22" as="geometry" />
        </mxCell>
        <mxCell id="nq7OmTxhRkzKAlg708lr-318" value="" style="shape=partialRectangle;html=1;whiteSpace=wrap;connectable=0;overflow=hidden;fillColor=none;top=0;left=0;bottom=0;right=0;" vertex="1" parent="nq7OmTxhRkzKAlg708lr-316">
          <mxGeometry x="60" width="60" height="22" as="geometry" />
        </mxCell>
        <mxCell id="nq7OmTxhRkzKAlg708lr-319" value="7" style="shape=partialRectangle;html=1;whiteSpace=wrap;connectable=0;overflow=hidden;fillColor=none;top=0;left=0;bottom=0;right=0;" vertex="1" parent="nq7OmTxhRkzKAlg708lr-316">
          <mxGeometry x="120" width="60" height="22" as="geometry" />
        </mxCell>
        <mxCell id="nq7OmTxhRkzKAlg708lr-320" value="0" style="shape=partialRectangle;html=1;whiteSpace=wrap;connectable=0;overflow=hidden;fillColor=none;top=0;left=0;bottom=0;right=0;" vertex="1" parent="nq7OmTxhRkzKAlg708lr-316">
          <mxGeometry x="180" width="60" height="22" as="geometry" />
        </mxCell>
        <mxCell id="nq7OmTxhRkzKAlg708lr-321" value="" style="shape=partialRectangle;html=1;whiteSpace=wrap;connectable=0;overflow=hidden;fillColor=none;top=0;left=0;bottom=0;right=0;" vertex="1" parent="nq7OmTxhRkzKAlg708lr-316">
          <mxGeometry x="240" width="60" height="22" as="geometry" />
        </mxCell>
        <mxCell id="nq7OmTxhRkzKAlg708lr-322" value="" style="shape=partialRectangle;html=1;whiteSpace=wrap;collapsible=0;dropTarget=0;pointerEvents=0;fillColor=none;top=0;left=0;bottom=0;right=0;points=[[0,0.5],[1,0.5]];portConstraint=eastwest;" vertex="1" parent="nq7OmTxhRkzKAlg708lr-219">
          <mxGeometry y="316" width="300" height="18" as="geometry" />
        </mxCell>
        <mxCell id="nq7OmTxhRkzKAlg708lr-323" value="17" style="shape=partialRectangle;html=1;whiteSpace=wrap;connectable=0;overflow=hidden;fillColor=none;top=0;left=0;bottom=0;right=0;" vertex="1" parent="nq7OmTxhRkzKAlg708lr-322">
          <mxGeometry width="60" height="18" as="geometry" />
        </mxCell>
        <mxCell id="nq7OmTxhRkzKAlg708lr-324" value="" style="shape=partialRectangle;html=1;whiteSpace=wrap;connectable=0;overflow=hidden;fillColor=none;top=0;left=0;bottom=0;right=0;" vertex="1" parent="nq7OmTxhRkzKAlg708lr-322">
          <mxGeometry x="60" width="60" height="18" as="geometry" />
        </mxCell>
        <mxCell id="nq7OmTxhRkzKAlg708lr-325" value="" style="shape=partialRectangle;html=1;whiteSpace=wrap;connectable=0;overflow=hidden;fillColor=none;top=0;left=0;bottom=0;right=0;" vertex="1" parent="nq7OmTxhRkzKAlg708lr-322">
          <mxGeometry x="120" width="60" height="18" as="geometry" />
        </mxCell>
        <mxCell id="nq7OmTxhRkzKAlg708lr-326" value="1" style="shape=partialRectangle;html=1;whiteSpace=wrap;connectable=0;overflow=hidden;fillColor=none;top=0;left=0;bottom=0;right=0;" vertex="1" parent="nq7OmTxhRkzKAlg708lr-322">
          <mxGeometry x="180" width="60" height="18" as="geometry" />
        </mxCell>
        <mxCell id="nq7OmTxhRkzKAlg708lr-327" value="" style="shape=partialRectangle;html=1;whiteSpace=wrap;connectable=0;overflow=hidden;fillColor=none;top=0;left=0;bottom=0;right=0;" vertex="1" parent="nq7OmTxhRkzKAlg708lr-322">
          <mxGeometry x="240" width="60" height="18" as="geometry" />
        </mxCell>
        <mxCell id="nq7OmTxhRkzKAlg708lr-328" value="" style="shape=partialRectangle;html=1;whiteSpace=wrap;collapsible=0;dropTarget=0;pointerEvents=0;fillColor=none;top=0;left=0;bottom=0;right=0;points=[[0,0.5],[1,0.5]];portConstraint=eastwest;" vertex="1" parent="nq7OmTxhRkzKAlg708lr-219">
          <mxGeometry y="334" width="300" height="18" as="geometry" />
        </mxCell>
        <mxCell id="nq7OmTxhRkzKAlg708lr-329" value="18" style="shape=partialRectangle;html=1;whiteSpace=wrap;connectable=0;overflow=hidden;fillColor=none;top=0;left=0;bottom=0;right=0;" vertex="1" parent="nq7OmTxhRkzKAlg708lr-328">
          <mxGeometry width="60" height="18" as="geometry" />
        </mxCell>
        <mxCell id="nq7OmTxhRkzKAlg708lr-330" value="" style="shape=partialRectangle;html=1;whiteSpace=wrap;connectable=0;overflow=hidden;fillColor=none;top=0;left=0;bottom=0;right=0;" vertex="1" parent="nq7OmTxhRkzKAlg708lr-328">
          <mxGeometry x="60" width="60" height="18" as="geometry" />
        </mxCell>
        <mxCell id="nq7OmTxhRkzKAlg708lr-331" value="" style="shape=partialRectangle;html=1;whiteSpace=wrap;connectable=0;overflow=hidden;fillColor=none;top=0;left=0;bottom=0;right=0;" vertex="1" parent="nq7OmTxhRkzKAlg708lr-328">
          <mxGeometry x="120" width="60" height="18" as="geometry" />
        </mxCell>
        <mxCell id="nq7OmTxhRkzKAlg708lr-332" value="2" style="shape=partialRectangle;html=1;whiteSpace=wrap;connectable=0;overflow=hidden;fillColor=none;top=0;left=0;bottom=0;right=0;" vertex="1" parent="nq7OmTxhRkzKAlg708lr-328">
          <mxGeometry x="180" width="60" height="18" as="geometry" />
        </mxCell>
        <mxCell id="nq7OmTxhRkzKAlg708lr-333" value="" style="shape=partialRectangle;html=1;whiteSpace=wrap;connectable=0;overflow=hidden;fillColor=none;top=0;left=0;bottom=0;right=0;" vertex="1" parent="nq7OmTxhRkzKAlg708lr-328">
          <mxGeometry x="240" width="60" height="18" as="geometry" />
        </mxCell>
        <mxCell id="nq7OmTxhRkzKAlg708lr-334" value="" style="shape=partialRectangle;html=1;whiteSpace=wrap;collapsible=0;dropTarget=0;pointerEvents=0;fillColor=none;top=0;left=0;bottom=0;right=0;points=[[0,0.5],[1,0.5]];portConstraint=eastwest;" vertex="1" parent="nq7OmTxhRkzKAlg708lr-219">
          <mxGeometry y="352" width="300" height="18" as="geometry" />
        </mxCell>
        <mxCell id="nq7OmTxhRkzKAlg708lr-335" value="19" style="shape=partialRectangle;html=1;whiteSpace=wrap;connectable=0;overflow=hidden;fillColor=none;top=0;left=0;bottom=0;right=0;" vertex="1" parent="nq7OmTxhRkzKAlg708lr-334">
          <mxGeometry width="60" height="18" as="geometry" />
        </mxCell>
        <mxCell id="nq7OmTxhRkzKAlg708lr-336" value="" style="shape=partialRectangle;html=1;whiteSpace=wrap;connectable=0;overflow=hidden;fillColor=none;top=0;left=0;bottom=0;right=0;" vertex="1" parent="nq7OmTxhRkzKAlg708lr-334">
          <mxGeometry x="60" width="60" height="18" as="geometry" />
        </mxCell>
        <mxCell id="nq7OmTxhRkzKAlg708lr-337" value="" style="shape=partialRectangle;html=1;whiteSpace=wrap;connectable=0;overflow=hidden;fillColor=none;top=0;left=0;bottom=0;right=0;" vertex="1" parent="nq7OmTxhRkzKAlg708lr-334">
          <mxGeometry x="120" width="60" height="18" as="geometry" />
        </mxCell>
        <mxCell id="nq7OmTxhRkzKAlg708lr-338" value="...." style="shape=partialRectangle;html=1;whiteSpace=wrap;connectable=0;overflow=hidden;fillColor=none;top=0;left=0;bottom=0;right=0;" vertex="1" parent="nq7OmTxhRkzKAlg708lr-334">
          <mxGeometry x="180" width="60" height="18" as="geometry" />
        </mxCell>
        <mxCell id="nq7OmTxhRkzKAlg708lr-339" value="" style="shape=partialRectangle;html=1;whiteSpace=wrap;connectable=0;overflow=hidden;fillColor=none;top=0;left=0;bottom=0;right=0;" vertex="1" parent="nq7OmTxhRkzKAlg708lr-334">
          <mxGeometry x="240" width="60" height="18" as="geometry" />
        </mxCell>
        <mxCell id="nq7OmTxhRkzKAlg708lr-341" value="" style="endArrow=none;html=1;" edge="1" parent="1">
          <mxGeometry width="50" height="50" relative="1" as="geometry">
            <mxPoint x="790" y="100" as="sourcePoint" />
            <mxPoint x="805" y="90" as="targetPoint" />
          </mxGeometry>
        </mxCell>
        <mxCell id="nq7OmTxhRkzKAlg708lr-342" value="" style="endArrow=none;html=1;" edge="1" parent="1">
          <mxGeometry width="50" height="50" relative="1" as="geometry">
            <mxPoint x="610" y="210" as="sourcePoint" />
            <mxPoint x="625" y="200" as="targetPoint" />
          </mxGeometry>
        </mxCell>
        <mxCell id="nq7OmTxhRkzKAlg708lr-343" value="" style="endArrow=none;html=1;" edge="1" parent="1">
          <mxGeometry width="50" height="50" relative="1" as="geometry">
            <mxPoint x="669.5" y="340" as="sourcePoint" />
            <mxPoint x="684.5" y="330" as="targetPoint" />
          </mxGeometry>
        </mxCell>
        <mxCell id="nq7OmTxhRkzKAlg708lr-346" value="" style="endArrow=none;html=1;" edge="1" parent="1">
          <mxGeometry width="50" height="50" relative="1" as="geometry">
            <mxPoint x="10" y="297.5" as="sourcePoint" />
            <mxPoint x="40" y="297.5" as="targetPoint" />
          </mxGeometry>
        </mxCell>
        <mxCell id="nq7OmTxhRkzKAlg708lr-347" value="p1" style="text;html=1;strokeColor=none;fillColor=none;align=center;verticalAlign=middle;whiteSpace=wrap;" vertex="1" parent="1">
          <mxGeometry x="10" y="277.5" width="40" height="20" as="geometry" />
        </mxCell>
        <mxCell id="nq7OmTxhRkzKAlg708lr-349" value="" style="endArrow=none;html=1;" edge="1" parent="1">
          <mxGeometry width="50" height="50" relative="1" as="geometry">
            <mxPoint x="60" y="297.5" as="sourcePoint" />
            <mxPoint x="90" y="297.5" as="targetPoint" />
          </mxGeometry>
        </mxCell>
        <mxCell id="nq7OmTxhRkzKAlg708lr-350" value="p2" style="text;html=1;strokeColor=none;fillColor=none;align=center;verticalAlign=middle;whiteSpace=wrap;" vertex="1" parent="1">
          <mxGeometry x="54" y="277.5" width="40" height="20" as="geometry" />
        </mxCell>
        <mxCell id="nq7OmTxhRkzKAlg708lr-352" style="edgeStyle=orthogonalEdgeStyle;orthogonalLoop=1;jettySize=auto;html=1;exitX=0.75;exitY=1;exitDx=0;exitDy=0;entryX=0.25;entryY=1;entryDx=0;entryDy=0;startArrow=none;startFill=0;endArrow=none;endFill=0;" edge="1" parent="1" source="nq7OmTxhRkzKAlg708lr-350" target="nq7OmTxhRkzKAlg708lr-350">
          <mxGeometry relative="1" as="geometry" />
        </mxCell>
        <mxCell id="nq7OmTxhRkzKAlg708lr-361" value="" style="endArrow=none;html=1;" edge="1" parent="1">
          <mxGeometry width="50" height="50" relative="1" as="geometry">
            <mxPoint x="110" y="297.5" as="sourcePoint" />
            <mxPoint x="140" y="297.5" as="targetPoint" />
          </mxGeometry>
        </mxCell>
        <mxCell id="nq7OmTxhRkzKAlg708lr-362" value="p3" style="text;html=1;strokeColor=none;fillColor=none;align=center;verticalAlign=middle;whiteSpace=wrap;" vertex="1" parent="1">
          <mxGeometry x="104" y="277.5" width="40" height="20" as="geometry" />
        </mxCell>
        <mxCell id="nq7OmTxhRkzKAlg708lr-363" style="edgeStyle=orthogonalEdgeStyle;orthogonalLoop=1;jettySize=auto;html=1;exitX=0.75;exitY=1;exitDx=0;exitDy=0;entryX=0.25;entryY=1;entryDx=0;entryDy=0;startArrow=none;startFill=0;endArrow=none;endFill=0;" edge="1" parent="1" source="nq7OmTxhRkzKAlg708lr-362" target="nq7OmTxhRkzKAlg708lr-362">
          <mxGeometry relative="1" as="geometry" />
        </mxCell>
        <mxCell id="nq7OmTxhRkzKAlg708lr-365" value="p4" style="text;html=1;strokeColor=none;fillColor=none;align=center;verticalAlign=middle;whiteSpace=wrap;" vertex="1" parent="1">
          <mxGeometry x="150" y="277.5" width="40" height="20" as="geometry" />
        </mxCell>
        <mxCell id="nq7OmTxhRkzKAlg708lr-366" style="edgeStyle=orthogonalEdgeStyle;orthogonalLoop=1;jettySize=auto;html=1;exitX=0.75;exitY=1;exitDx=0;exitDy=0;entryX=0.25;entryY=1;entryDx=0;entryDy=0;startArrow=none;startFill=0;endArrow=none;endFill=0;" edge="1" parent="1" source="nq7OmTxhRkzKAlg708lr-365" target="nq7OmTxhRkzKAlg708lr-365">
          <mxGeometry relative="1" as="geometry" />
        </mxCell>
        <mxCell id="nq7OmTxhRkzKAlg708lr-367" value="3" style="text;html=1;strokeColor=none;fillColor=none;align=center;verticalAlign=middle;whiteSpace=wrap;" vertex="1" parent="1">
          <mxGeometry x="10" y="297.5" width="40" height="20" as="geometry" />
        </mxCell>
        <mxCell id="nq7OmTxhRkzKAlg708lr-368" value="9" style="text;html=1;strokeColor=none;fillColor=none;align=center;verticalAlign=middle;whiteSpace=wrap;" vertex="1" parent="1">
          <mxGeometry x="54" y="297.5" width="40" height="20" as="geometry" />
        </mxCell>
        <mxCell id="nq7OmTxhRkzKAlg708lr-369" value="16" style="text;html=1;strokeColor=none;fillColor=none;align=center;verticalAlign=middle;whiteSpace=wrap;" vertex="1" parent="1">
          <mxGeometry x="104" y="297.5" width="40" height="20" as="geometry" />
        </mxCell>
        <mxCell id="nq7OmTxhRkzKAlg708lr-370" value="0" style="text;html=1;strokeColor=none;fillColor=none;align=center;verticalAlign=middle;whiteSpace=wrap;" vertex="1" parent="1">
          <mxGeometry x="150" y="297.5" width="40" height="20" as="geometry" />
        </mxCell>
        <mxCell id="nq7OmTxhRkzKAlg708lr-373" value="Ortalama Bekleme" style="swimlane;startSize=25;" vertex="1" parent="1">
          <mxGeometry x="10" y="240" width="200" height="115" as="geometry" />
        </mxCell>
        <mxCell id="nq7OmTxhRkzKAlg708lr-377" value="&lt;font color=&quot;#ff0000&quot;&gt;7&lt;/font&gt;" style="text;html=1;strokeColor=none;fillColor=none;align=center;verticalAlign=middle;whiteSpace=wrap;" vertex="1" parent="nq7OmTxhRkzKAlg708lr-373">
          <mxGeometry x="60" y="81" width="40" height="19.5" as="geometry" />
        </mxCell>
        <mxCell id="nq7OmTxhRkzKAlg708lr-380" value="Sonuc:" style="text;html=1;strokeColor=none;fillColor=none;align=center;verticalAlign=middle;whiteSpace=wrap;" vertex="1" parent="nq7OmTxhRkzKAlg708lr-373">
          <mxGeometry x="40" y="80.5" width="40" height="20" as="geometry" />
        </mxCell>
        <mxCell id="nq7OmTxhRkzKAlg708lr-383" value="" style="endArrow=none;startArrow=none;html=1;startFill=0;endFill=0;" edge="1" parent="1">
          <mxGeometry width="50" height="50" relative="1" as="geometry">
            <mxPoint x="123.99999999999977" y="480" as="sourcePoint" />
            <mxPoint x="394" y="480" as="targetPoint" />
          </mxGeometry>
        </mxCell>
        <mxCell id="nq7OmTxhRkzKAlg708lr-384" value="" style="endArrow=none;html=1;" edge="1" parent="1">
          <mxGeometry width="50" height="50" relative="1" as="geometry">
            <mxPoint x="143.99999999999977" y="500" as="sourcePoint" />
            <mxPoint x="143.99999999999977" y="460" as="targetPoint" />
            <Array as="points">
              <mxPoint x="144" y="480" />
            </Array>
          </mxGeometry>
        </mxCell>
        <mxCell id="nq7OmTxhRkzKAlg708lr-387" value="" style="edgeStyle=orthogonalEdgeStyle;orthogonalLoop=1;jettySize=auto;html=1;startArrow=none;startFill=0;endArrow=none;endFill=0;" edge="1" parent="1" target="nq7OmTxhRkzKAlg708lr-386">
          <mxGeometry relative="1" as="geometry">
            <mxPoint x="144.0588235294117" y="490" as="sourcePoint" />
          </mxGeometry>
        </mxCell>
        <mxCell id="nq7OmTxhRkzKAlg708lr-386" value="0&lt;br&gt;" style="text;html=1;strokeColor=none;fillColor=none;align=center;verticalAlign=middle;whiteSpace=wrap;" vertex="1" parent="1">
          <mxGeometry x="124" y="440" width="40" height="20" as="geometry" />
        </mxCell>
        <mxCell id="nq7OmTxhRkzKAlg708lr-388" value="" style="edgeStyle=orthogonalEdgeStyle;orthogonalLoop=1;jettySize=auto;html=1;startArrow=none;startFill=0;endArrow=none;endFill=0;" edge="1" parent="1">
          <mxGeometry relative="1" as="geometry">
            <mxPoint x="200.00000000000023" y="500" as="sourcePoint" />
            <mxPoint x="200.00000000000023" y="470" as="targetPoint" />
          </mxGeometry>
        </mxCell>
        <mxCell id="nq7OmTxhRkzKAlg708lr-532" value="" style="startArrow=dash;startSize=8;endArrow=none;endFill=0;endSize=6;html=1;" edge="1" parent="1">
          <mxGeometry width="100" relative="1" as="geometry">
            <mxPoint y="420" as="sourcePoint" />
            <mxPoint x="830" y="420" as="targetPoint" />
          </mxGeometry>
        </mxCell>
        <mxCell id="nq7OmTxhRkzKAlg708lr-1267" value="p1,p2,p3,p4" style="text;html=1;strokeColor=none;fillColor=none;align=center;verticalAlign=middle;whiteSpace=wrap;rounded=0;" vertex="1" parent="1">
          <mxGeometry x="110" y="500" width="40" height="20" as="geometry" />
        </mxCell>
        <mxCell id="nq7OmTxhRkzKAlg708lr-1268" value="6" style="text;html=1;strokeColor=none;fillColor=none;align=center;verticalAlign=middle;whiteSpace=wrap;rounded=0;" vertex="1" parent="1">
          <mxGeometry x="180" y="450" width="40" height="20" as="geometry" />
        </mxCell>
        <mxCell id="nq7OmTxhRkzKAlg708lr-1269" value="p1" style="text;html=1;strokeColor=none;fillColor=none;align=center;verticalAlign=middle;whiteSpace=wrap;rounded=0;" vertex="1" parent="1">
          <mxGeometry x="180" y="500" width="40" height="20" as="geometry" />
        </mxCell>
        <mxCell id="nq7OmTxhRkzKAlg708lr-1270" value="" style="edgeStyle=orthogonalEdgeStyle;orthogonalLoop=1;jettySize=auto;html=1;startArrow=none;startFill=0;endArrow=none;endFill=0;" edge="1" parent="1">
          <mxGeometry relative="1" as="geometry">
            <mxPoint x="240.00000000000023" y="500" as="sourcePoint" />
            <mxPoint x="240.00000000000023" y="470" as="targetPoint" />
          </mxGeometry>
        </mxCell>
        <mxCell id="nq7OmTxhRkzKAlg708lr-1272" value="13" style="text;html=1;strokeColor=none;fillColor=none;align=center;verticalAlign=middle;whiteSpace=wrap;rounded=0;" vertex="1" parent="1">
          <mxGeometry x="220" y="450" width="40" height="20" as="geometry" />
        </mxCell>
        <mxCell id="nq7OmTxhRkzKAlg708lr-1273" value="p2" style="text;html=1;strokeColor=none;fillColor=none;align=center;verticalAlign=middle;whiteSpace=wrap;rounded=0;" vertex="1" parent="1">
          <mxGeometry x="220" y="500" width="40" height="20" as="geometry" />
        </mxCell>
        <mxCell id="nq7OmTxhRkzKAlg708lr-1274" value="21" style="text;html=1;strokeColor=none;fillColor=none;align=center;verticalAlign=middle;whiteSpace=wrap;rounded=0;" vertex="1" parent="1">
          <mxGeometry x="293" y="450" width="40" height="20" as="geometry" />
        </mxCell>
        <mxCell id="nq7OmTxhRkzKAlg708lr-1277" value="" style="edgeStyle=orthogonalEdgeStyle;orthogonalLoop=1;jettySize=auto;html=1;startArrow=none;startFill=0;endArrow=none;endFill=0;" edge="1" parent="1">
          <mxGeometry relative="1" as="geometry">
            <mxPoint x="312.7100000000002" y="500" as="sourcePoint" />
            <mxPoint x="312.7100000000002" y="470" as="targetPoint" />
          </mxGeometry>
        </mxCell>
        <mxCell id="nq7OmTxhRkzKAlg708lr-1278" value="p3" style="text;html=1;strokeColor=none;fillColor=none;align=center;verticalAlign=middle;whiteSpace=wrap;rounded=0;" vertex="1" parent="1">
          <mxGeometry x="290" y="500" width="40" height="20" as="geometry" />
        </mxCell>
        <mxCell id="nq7OmTxhRkzKAlg708lr-1279" value="" style="edgeStyle=orthogonalEdgeStyle;orthogonalLoop=1;jettySize=auto;html=1;startArrow=none;startFill=0;endArrow=none;endFill=0;" edge="1" parent="1">
          <mxGeometry relative="1" as="geometry">
            <mxPoint x="390.0000000000003" y="510" as="sourcePoint" />
            <mxPoint x="390" y="470" as="targetPoint" />
          </mxGeometry>
        </mxCell>
        <mxCell id="nq7OmTxhRkzKAlg708lr-1280" value="24" style="text;html=1;strokeColor=none;fillColor=none;align=center;verticalAlign=middle;whiteSpace=wrap;rounded=0;" vertex="1" parent="1">
          <mxGeometry x="370" y="450" width="40" height="20" as="geometry" />
        </mxCell>
        <mxCell id="nq7OmTxhRkzKAlg708lr-1281" value="p4" style="text;html=1;strokeColor=none;fillColor=none;align=center;verticalAlign=middle;whiteSpace=wrap;rounded=0;" vertex="1" parent="1">
          <mxGeometry x="374" y="510" width="40" height="20" as="geometry" />
        </mxCell>
        <mxCell id="nq7OmTxhRkzKAlg708lr-1283" value="6+13+21+24/4 =&lt;font color=&quot;#ff3333&quot;&gt;16&lt;/font&gt;" style="text;html=1;strokeColor=none;fillColor=none;align=center;verticalAlign=middle;whiteSpace=wrap;rounded=0;" vertex="1" parent="1">
          <mxGeometry x="180" y="565" width="150" height="20" as="geometry" />
        </mxCell>
        <mxCell id="nq7OmTxhRkzKAlg708lr-1284" value="Text" style="text;html=1;strokeColor=none;fillColor=none;align=center;verticalAlign=middle;whiteSpace=wrap;rounded=0;" vertex="1" parent="1">
          <mxGeometry x="340" y="490" width="40" height="20" as="geometry" />
        </mxCell>
        <mxCell id="nq7OmTxhRkzKAlg708lr-1285" value="Ortalama Bekleme Süreleri" style="text;html=1;strokeColor=none;fillColor=none;align=center;verticalAlign=middle;whiteSpace=wrap;rounded=0;" vertex="1" parent="1">
          <mxGeometry x="144" y="535" width="235" height="30" as="geometry" />
        </mxCell>
      </root>
    </mxGraphModel>
  </diagram>
</mxfile>
